<?xml version="1.0" encoding="UTF-8" standalone="no"?>
<!DOCTYPE svg PUBLIC "-//W3C//DTD SVG 1.1//EN"
 "http://www.w3.org/Graphics/SVG/1.1/DTD/svg11.dtd">
<!-- Generated by graphviz version 2.47.0 (20210316.0004)
 -->
<!-- Title: dependencies Pages: 1 -->
<svg width="570pt" height="211pt"
 viewBox="0.00 0.00 570.00 211.00" xmlns="http://www.w3.org/2000/svg" xmlns:xlink="http://www.w3.org/1999/xlink">
<g id="graph0" class="graph" transform="scale(1 1) rotate(0) translate(4 207)">
<title>dependencies</title>
<polygon fill="white" stroke="transparent" points="-4,4 -4,-207 566,-207 566,4 -4,4"/>
<text text-anchor="start" x="260.01" y="-42.4" font-family="Times-12" font-weight="bold" font-size="14.00">Legend</text>
<polygon fill="#ffffb3" stroke="transparent" points="47,-10 47,-30 67,-30 67,-10 47,-10"/>
<text text-anchor="start" x="70.63" y="-15.4" font-family="Times-12" font-size="14.00"> &#160;Declarations</text>
<polygon fill="#8dd3c7" stroke="transparent" points="160,-10 160,-30 180,-30 180,-10 160,-10"/>
<text text-anchor="start" x="183.73" y="-15.4" font-family="Times-12" font-size="14.00"> &#160;Module</text>
<polygon fill="#80b1d3" stroke="transparent" points="246,-10 246,-30 266,-30 266,-10 246,-10"/>
<text text-anchor="start" x="269.78" y="-15.4" font-family="Times-12" font-size="14.00"> &#160;Bootstrap</text>
<polygon fill="#fdb462" stroke="transparent" points="343,-10 343,-30 363,-30 363,-10 343,-10"/>
<text text-anchor="start" x="366.67" y="-15.4" font-family="Times-12" font-size="14.00"> &#160;Providers</text>
<polygon fill="#fb8072" stroke="transparent" points="439,-10 439,-30 459,-30 459,-10 439,-10"/>
<text text-anchor="start" x="462.73" y="-15.4" font-family="Times-12" font-size="14.00"> &#160;Exports</text>
<g id="clust1" class="cluster">
<title>cluster_ResetPasswordModule</title>
<polygon fill="none" stroke="black" stroke-dasharray="1,5" points="8,-70 8,-195 554,-195 554,-70 8,-70"/>
</g>
<g id="clust2" class="cluster">
<title>cluster_ResetPasswordModule_declarations</title>
<polygon fill="none" stroke="black" points="364,-78 364,-130 546,-130 546,-78 364,-78"/>
</g>
<g id="clust4" class="cluster">
<title>cluster_ResetPasswordModule_imports</title>
<polygon fill="none" stroke="black" points="236,-78 236,-130 356,-130 356,-78 236,-78"/>
</g>
<g id="clust7" class="cluster">
<title>cluster_ResetPasswordModule_providers</title>
<polygon fill="none" stroke="black" points="16,-78 16,-130 228,-130 228,-78 16,-78"/>
</g>
<!-- ResetPasswordComponent -->
<g id="node1" class="node">
<title>ResetPasswordComponent</title>
<polygon fill="#ffffb3" stroke="black" points="538.09,-122 371.91,-122 371.91,-86 538.09,-86 538.09,-122"/>
<text text-anchor="middle" x="455" y="-99.8" font-family="Times,serif" font-size="14.00">ResetPasswordComponent</text>
</g>
<!-- ResetPasswordModule -->
<g id="node2" class="node">
<title>ResetPasswordModule</title>
<polygon fill="#8dd3c7" stroke="black" points="368.3,-187 365.3,-191 344.3,-191 341.3,-187 223.7,-187 223.7,-151 368.3,-151 368.3,-187"/>
<text text-anchor="middle" x="296" y="-164.8" font-family="Times,serif" font-size="14.00">ResetPasswordModule</text>
</g>
<!-- ResetPasswordComponent&#45;&gt;ResetPasswordModule -->
<g id="edge1" class="edge">
<title>ResetPasswordComponent&#45;&gt;ResetPasswordModule</title>
<path fill="none" stroke="black" d="M371.77,-104C363.37,-104 357.85,-104 357.85,-104 357.85,-104 357.85,-140.89 357.85,-140.89"/>
<polygon fill="black" stroke="black" points="354.35,-140.89 357.85,-150.89 361.35,-140.89 354.35,-140.89"/>
</g>
<!-- SpinnerModule -->
<g id="node3" class="node">
<title>SpinnerModule</title>
<polygon fill="#8dd3c7" stroke="black" points="347.6,-122 344.6,-126 323.6,-126 320.6,-122 244.4,-122 244.4,-86 347.6,-86 347.6,-122"/>
<text text-anchor="middle" x="296" y="-99.8" font-family="Times,serif" font-size="14.00">SpinnerModule</text>
</g>
<!-- SpinnerModule&#45;&gt;ResetPasswordModule -->
<g id="edge2" class="edge">
<title>SpinnerModule&#45;&gt;ResetPasswordModule</title>
<path fill="none" stroke="black" d="M296,-122.11C296,-122.11 296,-140.99 296,-140.99"/>
<polygon fill="black" stroke="black" points="292.5,-140.99 296,-150.99 299.5,-140.99 292.5,-140.99"/>
</g>
<!-- ResetPasswordService -->
<g id="node4" class="node">
<title>ResetPasswordService</title>
<ellipse fill="#fdb462" stroke="black" cx="122" cy="-104" rx="98.41" ry="18"/>
<text text-anchor="middle" x="122" y="-99.8" font-family="Times,serif" font-size="14.00">ResetPasswordService</text>
</g>
<!-- ResetPasswordService&#45;&gt;ResetPasswordModule -->
<g id="edge3" class="edge">
<title>ResetPasswordService&#45;&gt;ResetPasswordModule</title>
<path fill="none" stroke="black" d="M220.84,-104C228.97,-104 234.15,-104 234.15,-104 234.15,-104 234.15,-140.89 234.15,-140.89"/>
<polygon fill="black" stroke="black" points="230.65,-140.89 234.15,-150.89 237.65,-140.89 230.65,-140.89"/>
</g>
</g>
</svg>
