<?xml version="1.0" encoding="UTF-8" standalone="no"?>
<!DOCTYPE svg PUBLIC "-//W3C//DTD SVG 1.1//EN"
 "http://www.w3.org/Graphics/SVG/1.1/DTD/svg11.dtd">
<!-- Generated by graphviz version 2.47.0 (20210316.0004)
 -->
<!-- Title: dependencies Pages: 1 -->
<svg width="504pt" height="211pt"
 viewBox="0.00 0.00 504.00 211.00" xmlns="http://www.w3.org/2000/svg" xmlns:xlink="http://www.w3.org/1999/xlink">
<g id="graph0" class="graph" transform="scale(1 1) rotate(0) translate(4 207)">
<title>dependencies</title>
<polygon fill="white" stroke="transparent" points="-4,4 -4,-207 500,-207 500,4 -4,4"/>
<text text-anchor="start" x="227.01" y="-42.4" font-family="Times-12" font-weight="bold" font-size="14.00">Legend</text>
<polygon fill="#ffffb3" stroke="transparent" points="14,-10 14,-30 34,-30 34,-10 14,-10"/>
<text text-anchor="start" x="37.63" y="-15.4" font-family="Times-12" font-size="14.00"> &#160;Declarations</text>
<polygon fill="#8dd3c7" stroke="transparent" points="127,-10 127,-30 147,-30 147,-10 127,-10"/>
<text text-anchor="start" x="150.73" y="-15.4" font-family="Times-12" font-size="14.00"> &#160;Module</text>
<polygon fill="#80b1d3" stroke="transparent" points="213,-10 213,-30 233,-30 233,-10 213,-10"/>
<text text-anchor="start" x="236.78" y="-15.4" font-family="Times-12" font-size="14.00"> &#160;Bootstrap</text>
<polygon fill="#fdb462" stroke="transparent" points="310,-10 310,-30 330,-30 330,-10 310,-10"/>
<text text-anchor="start" x="333.67" y="-15.4" font-family="Times-12" font-size="14.00"> &#160;Providers</text>
<polygon fill="#fb8072" stroke="transparent" points="406,-10 406,-30 426,-30 426,-10 406,-10"/>
<text text-anchor="start" x="429.73" y="-15.4" font-family="Times-12" font-size="14.00"> &#160;Exports</text>
<g id="clust1" class="cluster">
<title>cluster_ProjetosModule</title>
<polygon fill="none" stroke="black" stroke-dasharray="1,5" points="24,-70 24,-195 472,-195 472,-70 24,-70"/>
</g>
<g id="clust7" class="cluster">
<title>cluster_ProjetosModule_providers</title>
<polygon fill="none" stroke="black" points="312,-78 312,-130 464,-130 464,-78 312,-78"/>
</g>
<g id="clust2" class="cluster">
<title>cluster_ProjetosModule_declarations</title>
<polygon fill="none" stroke="black" points="160,-78 160,-130 304,-130 304,-78 160,-78"/>
</g>
<g id="clust4" class="cluster">
<title>cluster_ProjetosModule_imports</title>
<polygon fill="none" stroke="black" points="32,-78 32,-130 152,-130 152,-78 32,-78"/>
</g>
<!-- ProjetosComponent -->
<g id="node1" class="node">
<title>ProjetosComponent</title>
<polygon fill="#ffffb3" stroke="black" points="295.72,-122 168.28,-122 168.28,-86 295.72,-86 295.72,-122"/>
<text text-anchor="middle" x="232" y="-99.8" font-family="Times,serif" font-size="14.00">ProjetosComponent</text>
</g>
<!-- ProjetosModule -->
<g id="node2" class="node">
<title>ProjetosModule</title>
<polygon fill="#8dd3c7" stroke="black" points="284.93,-187 281.93,-191 260.93,-191 257.93,-187 179.07,-187 179.07,-151 284.93,-151 284.93,-187"/>
<text text-anchor="middle" x="232" y="-164.8" font-family="Times,serif" font-size="14.00">ProjetosModule</text>
</g>
<!-- ProjetosComponent&#45;&gt;ProjetosModule -->
<g id="edge1" class="edge">
<title>ProjetosComponent&#45;&gt;ProjetosModule</title>
<path fill="none" stroke="black" d="M232,-122.11C232,-122.11 232,-140.99 232,-140.99"/>
<polygon fill="black" stroke="black" points="228.5,-140.99 232,-150.99 235.5,-140.99 228.5,-140.99"/>
</g>
<!-- SpinnerModule -->
<g id="node3" class="node">
<title>SpinnerModule</title>
<polygon fill="#8dd3c7" stroke="black" points="143.6,-122 140.6,-126 119.6,-126 116.6,-122 40.4,-122 40.4,-86 143.6,-86 143.6,-122"/>
<text text-anchor="middle" x="92" y="-99.8" font-family="Times,serif" font-size="14.00">SpinnerModule</text>
</g>
<!-- SpinnerModule&#45;&gt;ProjetosModule -->
<g id="edge2" class="edge">
<title>SpinnerModule&#45;&gt;ProjetosModule</title>
<path fill="none" stroke="black" d="M92,-122.11C92,-141.34 92,-169 92,-169 92,-169 169.07,-169 169.07,-169"/>
<polygon fill="black" stroke="black" points="169.07,-172.5 179.07,-169 169.07,-165.5 169.07,-172.5"/>
</g>
<!-- ProjetoService -->
<g id="node4" class="node">
<title>ProjetoService</title>
<ellipse fill="#fdb462" stroke="black" cx="388" cy="-104" rx="67.77" ry="18"/>
<text text-anchor="middle" x="388" y="-99.8" font-family="Times,serif" font-size="14.00">ProjetoService</text>
</g>
<!-- ProjetoService&#45;&gt;ProjetosModule -->
<g id="edge3" class="edge">
<title>ProjetoService&#45;&gt;ProjetosModule</title>
<path fill="none" stroke="black" d="M388,-122.11C388,-141.34 388,-169 388,-169 388,-169 294.81,-169 294.81,-169"/>
<polygon fill="black" stroke="black" points="294.81,-165.5 284.81,-169 294.81,-172.5 294.81,-165.5"/>
</g>
</g>
</svg>
