<?xml version="1.0" encoding="UTF-8" standalone="no"?>
<!DOCTYPE svg PUBLIC "-//W3C//DTD SVG 1.1//EN"
 "http://www.w3.org/Graphics/SVG/1.1/DTD/svg11.dtd">
<!-- Generated by graphviz version 2.47.0 (20210316.0004)
 -->
<!-- Title: dependencies Pages: 1 -->
<svg width="504pt" height="211pt"
 viewBox="0.00 0.00 504.00 211.00" xmlns="http://www.w3.org/2000/svg" xmlns:xlink="http://www.w3.org/1999/xlink">
<g id="graph0" class="graph" transform="scale(1 1) rotate(0) translate(4 207)">
<title>dependencies</title>
<polygon fill="white" stroke="transparent" points="-4,4 -4,-207 500,-207 500,4 -4,4"/>
<text text-anchor="start" x="227.01" y="-42.4" font-family="Times-12" font-weight="bold" font-size="14.00">Legend</text>
<polygon fill="#ffffb3" stroke="transparent" points="14,-10 14,-30 34,-30 34,-10 14,-10"/>
<text text-anchor="start" x="37.63" y="-15.4" font-family="Times-12" font-size="14.00"> &#160;Declarations</text>
<polygon fill="#8dd3c7" stroke="transparent" points="127,-10 127,-30 147,-30 147,-10 127,-10"/>
<text text-anchor="start" x="150.73" y="-15.4" font-family="Times-12" font-size="14.00"> &#160;Module</text>
<polygon fill="#80b1d3" stroke="transparent" points="213,-10 213,-30 233,-30 233,-10 213,-10"/>
<text text-anchor="start" x="236.78" y="-15.4" font-family="Times-12" font-size="14.00"> &#160;Bootstrap</text>
<polygon fill="#fdb462" stroke="transparent" points="310,-10 310,-30 330,-30 330,-10 310,-10"/>
<text text-anchor="start" x="333.67" y="-15.4" font-family="Times-12" font-size="14.00"> &#160;Providers</text>
<polygon fill="#fb8072" stroke="transparent" points="406,-10 406,-30 426,-30 426,-10 406,-10"/>
<text text-anchor="start" x="429.73" y="-15.4" font-family="Times-12" font-size="14.00"> &#160;Exports</text>
<g id="clust1" class="cluster">
<title>cluster_LoginPageModule</title>
<polygon fill="none" stroke="black" stroke-dasharray="1,5" points="14,-70 14,-195 482,-195 482,-70 14,-70"/>
</g>
<g id="clust7" class="cluster">
<title>cluster_LoginPageModule_providers</title>
<polygon fill="none" stroke="black" points="316,-78 316,-130 474,-130 474,-78 316,-78"/>
</g>
<g id="clust4" class="cluster">
<title>cluster_LoginPageModule_imports</title>
<polygon fill="none" stroke="black" points="188,-78 188,-130 308,-130 308,-78 188,-78"/>
</g>
<g id="clust2" class="cluster">
<title>cluster_LoginPageModule_declarations</title>
<polygon fill="none" stroke="black" points="22,-78 22,-130 180,-130 180,-78 22,-78"/>
</g>
<!-- LoginPageComponent -->
<g id="node1" class="node">
<title>LoginPageComponent</title>
<polygon fill="#ffffb3" stroke="black" points="171.99,-122 30.01,-122 30.01,-86 171.99,-86 171.99,-122"/>
<text text-anchor="middle" x="101" y="-99.8" font-family="Times,serif" font-size="14.00">LoginPageComponent</text>
</g>
<!-- LoginPageModule -->
<g id="node2" class="node">
<title>LoginPageModule</title>
<polygon fill="#8dd3c7" stroke="black" points="308.2,-187 305.2,-191 284.2,-191 281.2,-187 187.8,-187 187.8,-151 308.2,-151 308.2,-187"/>
<text text-anchor="middle" x="248" y="-164.8" font-family="Times,serif" font-size="14.00">LoginPageModule</text>
</g>
<!-- LoginPageComponent&#45;&gt;LoginPageModule -->
<g id="edge1" class="edge">
<title>LoginPageComponent&#45;&gt;LoginPageModule</title>
<path fill="none" stroke="black" d="M172.39,-104C183.93,-104 192.17,-104 192.17,-104 192.17,-104 192.17,-140.89 192.17,-140.89"/>
<polygon fill="black" stroke="black" points="188.67,-140.89 192.17,-150.89 195.67,-140.89 188.67,-140.89"/>
</g>
<!-- SpinnerModule -->
<g id="node3" class="node">
<title>SpinnerModule</title>
<polygon fill="#8dd3c7" stroke="black" points="299.6,-122 296.6,-126 275.6,-126 272.6,-122 196.4,-122 196.4,-86 299.6,-86 299.6,-122"/>
<text text-anchor="middle" x="248" y="-99.8" font-family="Times,serif" font-size="14.00">SpinnerModule</text>
</g>
<!-- SpinnerModule&#45;&gt;LoginPageModule -->
<g id="edge2" class="edge">
<title>SpinnerModule&#45;&gt;LoginPageModule</title>
<path fill="none" stroke="black" d="M248,-122.11C248,-122.11 248,-140.99 248,-140.99"/>
<polygon fill="black" stroke="black" points="244.5,-140.99 248,-150.99 251.5,-140.99 244.5,-140.99"/>
</g>
<!-- UsuarioService -->
<g id="node4" class="node">
<title>UsuarioService</title>
<ellipse fill="#fdb462" stroke="black" cx="395" cy="-104" rx="70.62" ry="18"/>
<text text-anchor="middle" x="395" y="-99.8" font-family="Times,serif" font-size="14.00">UsuarioService</text>
</g>
<!-- UsuarioService&#45;&gt;LoginPageModule -->
<g id="edge3" class="edge">
<title>UsuarioService&#45;&gt;LoginPageModule</title>
<path fill="none" stroke="black" d="M324.06,-104C312.29,-104 303.83,-104 303.83,-104 303.83,-104 303.83,-140.89 303.83,-140.89"/>
<polygon fill="black" stroke="black" points="300.33,-140.89 303.83,-150.89 307.33,-140.89 300.33,-140.89"/>
</g>
</g>
</svg>
