<?xml version="1.0" encoding="UTF-8" standalone="no"?>
<!DOCTYPE svg PUBLIC "-//W3C//DTD SVG 1.1//EN"
 "http://www.w3.org/Graphics/SVG/1.1/DTD/svg11.dtd">
<!-- Generated by graphviz version 2.47.0 (20210316.0004)
 -->
<!-- Title: dependencies Pages: 1 -->
<svg width="2918pt" height="290pt"
 viewBox="0.00 0.00 2918.00 290.00" xmlns="http://www.w3.org/2000/svg" xmlns:xlink="http://www.w3.org/1999/xlink">
<g id="graph0" class="graph" transform="scale(1 1) rotate(0) translate(4 286)">
<title>dependencies</title>
<polygon fill="white" stroke="transparent" points="-4,4 -4,-286 2914,-286 2914,4 -4,4"/>
<text text-anchor="start" x="1434.01" y="-42.4" font-family="Times-12" font-weight="bold" font-size="14.00">Legend</text>
<polygon fill="#ffffb3" stroke="transparent" points="1221,-10 1221,-30 1241,-30 1241,-10 1221,-10"/>
<text text-anchor="start" x="1244.63" y="-15.4" font-family="Times-12" font-size="14.00"> &#160;Declarations</text>
<polygon fill="#8dd3c7" stroke="transparent" points="1334,-10 1334,-30 1354,-30 1354,-10 1334,-10"/>
<text text-anchor="start" x="1357.73" y="-15.4" font-family="Times-12" font-size="14.00"> &#160;Module</text>
<polygon fill="#80b1d3" stroke="transparent" points="1420,-10 1420,-30 1440,-30 1440,-10 1420,-10"/>
<text text-anchor="start" x="1443.78" y="-15.4" font-family="Times-12" font-size="14.00"> &#160;Bootstrap</text>
<polygon fill="#fdb462" stroke="transparent" points="1517,-10 1517,-30 1537,-30 1537,-10 1517,-10"/>
<text text-anchor="start" x="1540.67" y="-15.4" font-family="Times-12" font-size="14.00"> &#160;Providers</text>
<polygon fill="#fb8072" stroke="transparent" points="1613,-10 1613,-30 1633,-30 1633,-10 1613,-10"/>
<text text-anchor="start" x="1636.73" y="-15.4" font-family="Times-12" font-size="14.00"> &#160;Exports</text>
<g id="clust1" class="cluster">
<title>cluster_AnotacaoModule</title>
<polygon fill="none" stroke="black" stroke-dasharray="1,5" points="1304,-70 1304,-198 1776,-198 1776,-70 1304,-70"/>
</g>
<g id="clust2" class="cluster">
<title>cluster_AnotacaoModule_declarations</title>
<polygon fill="none" stroke="black" points="1618,-78 1618,-130 1768,-130 1768,-78 1618,-78"/>
</g>
<g id="clust4" class="cluster">
<title>cluster_AnotacaoModule_imports</title>
<polygon fill="none" stroke="black" points="1312,-78 1312,-130 1432,-130 1432,-78 1312,-78"/>
</g>
<g id="clust7" class="cluster">
<title>cluster_AnotacaoModule_providers</title>
<polygon fill="none" stroke="black" points="1440,-78 1440,-130 1610,-130 1610,-78 1440,-78"/>
</g>
<g id="clust8" class="cluster">
<title>cluster_AppModule</title>
<polygon fill="none" stroke="black" stroke-dasharray="1,5" points="2454,-70 2454,-274 2720,-274 2720,-70 2454,-70"/>
</g>
<g id="clust9" class="cluster">
<title>cluster_AppModule_declarations</title>
<polygon fill="none" stroke="black" points="2590,-78 2590,-130 2712,-130 2712,-78 2590,-78"/>
</g>
<g id="clust11" class="cluster">
<title>cluster_AppModule_imports</title>
<polygon fill="none" stroke="black" points="2462,-78 2462,-130 2582,-130 2582,-78 2462,-78"/>
</g>
<g id="clust13" class="cluster">
<title>cluster_AppModule_bootstrap</title>
<polygon fill="none" stroke="black" points="2525,-214 2525,-266 2649,-266 2649,-214 2525,-214"/>
</g>
<g id="clust15" class="cluster">
<title>cluster_HomePageModule</title>
<polygon fill="none" stroke="black" stroke-dasharray="1,5" points="640,-138 640,-266 980,-266 980,-138 640,-138"/>
</g>
<g id="clust16" class="cluster">
<title>cluster_HomePageModule_declarations</title>
<polygon fill="none" stroke="black" points="814,-146 814,-198 972,-198 972,-146 814,-146"/>
</g>
<g id="clust21" class="cluster">
<title>cluster_HomePageModule_providers</title>
<polygon fill="none" stroke="black" points="648,-146 648,-198 806,-198 806,-146 648,-146"/>
</g>
<g id="clust22" class="cluster">
<title>cluster_LoginPageModule</title>
<polygon fill="none" stroke="black" stroke-dasharray="1,5" points="8,-138 8,-266 182,-266 182,-138 8,-138"/>
</g>
<g id="clust23" class="cluster">
<title>cluster_LoginPageModule_declarations</title>
<polygon fill="none" stroke="black" points="16,-146 16,-198 174,-198 174,-146 16,-146"/>
</g>
<g id="clust29" class="cluster">
<title>cluster_NotFoundModule</title>
<polygon fill="none" stroke="black" stroke-dasharray="1,5" points="2728,-70 2728,-274 2902,-274 2902,-70 2728,-70"/>
</g>
<g id="clust30" class="cluster">
<title>cluster_NotFoundModule_declarations</title>
<polygon fill="none" stroke="black" points="2738,-78 2738,-130 2892,-130 2892,-78 2738,-78"/>
</g>
<g id="clust33" class="cluster">
<title>cluster_NotFoundModule_exports</title>
<polygon fill="none" stroke="black" points="2736,-214 2736,-266 2894,-266 2894,-214 2736,-214"/>
</g>
<g id="clust36" class="cluster">
<title>cluster_PesquisaModule</title>
<polygon fill="none" stroke="black" stroke-dasharray="1,5" points="1784,-70 1784,-198 2278,-198 2278,-70 1784,-70"/>
</g>
<g id="clust37" class="cluster">
<title>cluster_PesquisaModule_declarations</title>
<polygon fill="none" stroke="black" points="1792,-78 1792,-130 1944,-130 1944,-78 1792,-78"/>
</g>
<g id="clust42" class="cluster">
<title>cluster_PesquisaModule_providers</title>
<polygon fill="none" stroke="black" points="1952,-78 1952,-130 2270,-130 2270,-78 1952,-78"/>
</g>
<g id="clust43" class="cluster">
<title>cluster_ProjetosModule</title>
<polygon fill="none" stroke="black" stroke-dasharray="1,5" points="2286,-70 2286,-198 2446,-198 2446,-70 2286,-70"/>
</g>
<g id="clust44" class="cluster">
<title>cluster_ProjetosModule_declarations</title>
<polygon fill="none" stroke="black" points="2294,-78 2294,-130 2438,-130 2438,-78 2294,-78"/>
</g>
<g id="clust50" class="cluster">
<title>cluster_RecuperarSenhaModule</title>
<polygon fill="none" stroke="black" stroke-dasharray="1,5" points="404,-138 404,-266 610,-266 610,-138 404,-138"/>
</g>
<g id="clust51" class="cluster">
<title>cluster_RecuperarSenhaModule_declarations</title>
<polygon fill="none" stroke="black" points="412,-146 412,-198 602,-198 602,-146 412,-146"/>
</g>
<g id="clust57" class="cluster">
<title>cluster_ResetaSenhaModule</title>
<polygon fill="none" stroke="black" stroke-dasharray="1,5" points="212,-138 212,-266 396,-266 396,-138 212,-138"/>
</g>
<g id="clust58" class="cluster">
<title>cluster_ResetaSenhaModule_declarations</title>
<polygon fill="none" stroke="black" points="220,-146 220,-198 388,-198 388,-146 220,-146"/>
</g>
<g id="clust70" class="cluster">
<title>cluster_SpinnerModule</title>
<polygon fill="none" stroke="black" stroke-dasharray="1,5" points="988,-138 988,-206 1296,-206 1296,-138 988,-138"/>
</g>
<g id="clust71" class="cluster">
<title>cluster_SpinnerModule_declarations</title>
<polygon fill="none" stroke="black" points="1148,-146 1148,-198 1288,-198 1288,-146 1148,-146"/>
</g>
<g id="clust74" class="cluster">
<title>cluster_SpinnerModule_exports</title>
<polygon fill="none" stroke="black" points="996,-146 996,-198 1140,-198 1140,-146 996,-146"/>
</g>
<!-- AnotacaoComponent -->
<g id="node1" class="node">
<title>AnotacaoComponent</title>
<polygon fill="#ffffb3" stroke="black" points="1760.47,-122 1625.53,-122 1625.53,-86 1760.47,-86 1760.47,-122"/>
<text text-anchor="middle" x="1693" y="-99.8" font-family="Times,serif" font-size="14.00">AnotacaoComponent</text>
</g>
<!-- AnotacaoModule -->
<g id="node2" class="node">
<title>AnotacaoModule</title>
<polygon fill="#8dd3c7" stroke="black" points="1504.69,-190 1501.69,-194 1480.69,-194 1477.69,-190 1391.31,-190 1391.31,-154 1504.69,-154 1504.69,-190"/>
<text text-anchor="middle" x="1448" y="-167.8" font-family="Times,serif" font-size="14.00">AnotacaoModule</text>
</g>
<!-- AnotacaoComponent&#45;&gt;AnotacaoModule -->
<g id="edge1" class="edge">
<title>AnotacaoComponent&#45;&gt;AnotacaoModule</title>
<path fill="none" stroke="black" d="M1693,-122.22C1693,-142.37 1693,-172 1693,-172 1693,-172 1514.82,-172 1514.82,-172"/>
<polygon fill="black" stroke="black" points="1514.82,-168.5 1504.82,-172 1514.82,-175.5 1514.82,-168.5"/>
</g>
<!-- HomePageModule -->
<g id="node10" class="node">
<title>HomePageModule</title>
<polygon fill="#8dd3c7" stroke="black" points="953.47,-258 950.47,-262 929.47,-262 926.47,-258 832.53,-258 832.53,-222 953.47,-222 953.47,-258"/>
<text text-anchor="middle" x="893" y="-235.8" font-family="Times,serif" font-size="14.00">HomePageModule</text>
</g>
<!-- AnotacaoModule&#45;&gt;HomePageModule -->
<g id="edge8" class="edge">
<title>AnotacaoModule&#45;&gt;HomePageModule</title>
<path fill="none" stroke="black" d="M1448,-190.22C1448,-210.37 1448,-240 1448,-240 1448,-240 963.72,-240 963.72,-240"/>
<polygon fill="black" stroke="black" points="963.72,-236.5 953.72,-240 963.72,-243.5 963.72,-236.5"/>
</g>
<!-- SpinnerModule -->
<g id="node3" class="node">
<title>SpinnerModule</title>
<polygon fill="#8dd3c7" stroke="black" points="1423.6,-122 1420.6,-126 1399.6,-126 1396.6,-122 1320.4,-122 1320.4,-86 1423.6,-86 1423.6,-122"/>
<text text-anchor="middle" x="1372" y="-99.8" font-family="Times,serif" font-size="14.00">SpinnerModule</text>
</g>
<!-- SpinnerModule&#45;&gt;AnotacaoModule -->
<g id="edge2" class="edge">
<title>SpinnerModule&#45;&gt;AnotacaoModule</title>
<path fill="none" stroke="black" d="M1399.44,-122.22C1399.44,-122.22 1399.44,-143.73 1399.44,-143.73"/>
<polygon fill="black" stroke="black" points="1395.94,-143.73 1399.44,-153.73 1402.94,-143.73 1395.94,-143.73"/>
</g>
<!-- LoginPageModule -->
<g id="node13" class="node">
<title>LoginPageModule</title>
<polygon fill="#8dd3c7" stroke="black" points="155.2,-258 152.2,-262 131.2,-262 128.2,-258 34.8,-258 34.8,-222 155.2,-222 155.2,-258"/>
<text text-anchor="middle" x="95" y="-235.8" font-family="Times,serif" font-size="14.00">LoginPageModule</text>
</g>
<!-- SpinnerModule&#45;&gt;LoginPageModule -->
<g id="edge11" class="edge">
<title>SpinnerModule&#45;&gt;LoginPageModule</title>
<path fill="none" stroke="black" d="M1320.37,-94C1093.55,-94 196.78,-94 196.78,-94 196.78,-94 196.78,-240 196.78,-240 196.78,-240 165.38,-240 165.38,-240"/>
<polygon fill="black" stroke="black" points="165.38,-236.5 155.38,-240 165.38,-243.5 165.38,-236.5"/>
</g>
<!-- PesquisaModule -->
<g id="node18" class="node">
<title>PesquisaModule</title>
<polygon fill="#8dd3c7" stroke="black" points="2005.04,-190 2002.04,-194 1981.04,-194 1978.04,-190 1896.96,-190 1896.96,-154 2005.04,-154 2005.04,-190"/>
<text text-anchor="middle" x="1951" y="-167.8" font-family="Times,serif" font-size="14.00">PesquisaModule</text>
</g>
<!-- SpinnerModule&#45;&gt;PesquisaModule -->
<g id="edge16" class="edge">
<title>SpinnerModule&#45;&gt;PesquisaModule</title>
<path fill="none" stroke="black" d="M1407.48,-122.13C1407.48,-132.71 1407.48,-144 1407.48,-144 1407.48,-144 1909.78,-144 1909.78,-144 1909.78,-144 1909.78,-144.98 1909.78,-144.98"/>
<polygon fill="black" stroke="black" points="1906.28,-143.79 1909.78,-153.79 1913.28,-143.79 1906.28,-143.79"/>
</g>
<!-- ProjetosModule -->
<g id="node22" class="node">
<title>ProjetosModule</title>
<polygon fill="#8dd3c7" stroke="black" points="2399.93,-190 2396.93,-194 2375.93,-194 2372.93,-190 2294.07,-190 2294.07,-154 2399.93,-154 2399.93,-190"/>
<text text-anchor="middle" x="2347" y="-167.8" font-family="Times,serif" font-size="14.00">ProjetosModule</text>
</g>
<!-- SpinnerModule&#45;&gt;ProjetosModule -->
<g id="edge20" class="edge">
<title>SpinnerModule&#45;&gt;ProjetosModule</title>
<path fill="none" stroke="black" d="M1415.51,-122.2C1415.51,-128.03 1415.51,-133 1415.51,-133 1415.51,-133 2296.99,-133 2296.99,-133 2296.99,-133 2296.99,-143.87 2296.99,-143.87"/>
<polygon fill="black" stroke="black" points="2293.49,-143.87 2296.99,-153.87 2300.49,-143.87 2293.49,-143.87"/>
</g>
<!-- RecuperarSenhaModule -->
<g id="node24" class="node">
<title>RecuperarSenhaModule</title>
<polygon fill="#8dd3c7" stroke="black" points="601.78,-258 598.78,-262 577.78,-262 574.78,-258 450.22,-258 450.22,-222 601.78,-222 601.78,-258"/>
<text text-anchor="middle" x="526" y="-235.8" font-family="Times,serif" font-size="14.00">RecuperarSenhaModule</text>
</g>
<!-- SpinnerModule&#45;&gt;RecuperarSenhaModule -->
<g id="edge23" class="edge">
<title>SpinnerModule&#45;&gt;RecuperarSenhaModule</title>
<path fill="none" stroke="black" d="M1320.2,-108C1146.6,-108 596.23,-108 596.23,-108 596.23,-108 596.23,-211.92 596.23,-211.92"/>
<polygon fill="black" stroke="black" points="592.73,-211.92 596.23,-221.92 599.73,-211.92 592.73,-211.92"/>
</g>
<!-- ResetaSenhaModule -->
<g id="node26" class="node">
<title>ResetaSenhaModule</title>
<polygon fill="#8dd3c7" stroke="black" points="369.58,-258 366.58,-262 345.58,-262 342.58,-258 238.42,-258 238.42,-222 369.58,-222 369.58,-258"/>
<text text-anchor="middle" x="304" y="-235.8" font-family="Times,serif" font-size="14.00">ResetaSenhaModule</text>
</g>
<!-- SpinnerModule&#45;&gt;ResetaSenhaModule -->
<g id="edge26" class="edge">
<title>SpinnerModule&#45;&gt;ResetaSenhaModule</title>
<path fill="none" stroke="black" d="M1320.11,-101C1118.78,-101 400.45,-101 400.45,-101 400.45,-101 400.45,-240 400.45,-240 400.45,-240 379.67,-240 379.67,-240"/>
<polygon fill="black" stroke="black" points="379.67,-236.5 369.67,-240 379.67,-243.5 379.67,-236.5"/>
</g>
<!-- SpinnerComponent  -->
<g id="node28" class="node">
<title>SpinnerComponent </title>
<polygon fill="#fb8072" stroke="black" points="1132.38,-190 1003.62,-190 1003.62,-154 1132.38,-154 1132.38,-190"/>
<text text-anchor="middle" x="1068" y="-167.8" font-family="Times,serif" font-size="14.00">SpinnerComponent </text>
</g>
<!-- SpinnerModule&#45;&gt;SpinnerComponent  -->
<g id="edge29" class="edge">
<title>SpinnerModule&#45;&gt;SpinnerComponent </title>
<path fill="none" stroke="black" stroke-dasharray="5,2" d="M1320.43,-115C1233.7,-115 1068,-115 1068,-115 1068,-115 1068,-143.96 1068,-143.96"/>
<polygon fill="black" stroke="black" points="1064.5,-143.96 1068,-153.96 1071.5,-143.96 1064.5,-143.96"/>
</g>
<!-- AnotacaoService -->
<g id="node4" class="node">
<title>AnotacaoService</title>
<ellipse fill="#fdb462" stroke="black" cx="1525" cy="-104" rx="76.98" ry="18"/>
<text text-anchor="middle" x="1525" y="-99.8" font-family="Times,serif" font-size="14.00">AnotacaoService</text>
</g>
<!-- AnotacaoService&#45;&gt;AnotacaoModule -->
<g id="edge3" class="edge">
<title>AnotacaoService&#45;&gt;AnotacaoModule</title>
<path fill="none" stroke="black" d="M1476.3,-118.09C1476.3,-118.09 1476.3,-143.79 1476.3,-143.79"/>
<polygon fill="black" stroke="black" points="1472.8,-143.79 1476.3,-153.79 1479.8,-143.79 1472.8,-143.79"/>
</g>
<!-- AppComponent -->
<g id="node5" class="node">
<title>AppComponent</title>
<polygon fill="#ffffb3" stroke="black" points="2703.94,-122 2598.06,-122 2598.06,-86 2703.94,-86 2703.94,-122"/>
<text text-anchor="middle" x="2651" y="-99.8" font-family="Times,serif" font-size="14.00">AppComponent</text>
</g>
<!-- AppModule -->
<g id="node6" class="node">
<title>AppModule</title>
<polygon fill="#8dd3c7" stroke="black" points="2628.66,-190 2625.66,-194 2604.66,-194 2601.66,-190 2545.34,-190 2545.34,-154 2628.66,-154 2628.66,-190"/>
<text text-anchor="middle" x="2587" y="-167.8" font-family="Times,serif" font-size="14.00">AppModule</text>
</g>
<!-- AppComponent&#45;&gt;AppModule -->
<g id="edge4" class="edge">
<title>AppComponent&#45;&gt;AppModule</title>
<path fill="none" stroke="black" d="M2613.55,-122.22C2613.55,-122.22 2613.55,-143.73 2613.55,-143.73"/>
<polygon fill="black" stroke="black" points="2610.05,-143.73 2613.55,-153.73 2617.05,-143.73 2610.05,-143.73"/>
</g>
<!-- AppComponent  -->
<g id="node8" class="node">
<title>AppComponent </title>
<polygon fill="#80b1d3" stroke="black" points="2641.44,-258 2532.56,-258 2532.56,-222 2641.44,-222 2641.44,-258"/>
<text text-anchor="middle" x="2587" y="-235.8" font-family="Times,serif" font-size="14.00">AppComponent </text>
</g>
<!-- AppModule&#45;&gt;AppComponent  -->
<g id="edge6" class="edge">
<title>AppModule&#45;&gt;AppComponent </title>
<path fill="none" stroke="black" stroke-dasharray="1,5" d="M2587,-190.22C2587,-190.22 2587,-211.73 2587,-211.73"/>
<polygon fill="black" stroke="black" points="2583.5,-211.73 2587,-221.73 2590.5,-211.73 2583.5,-211.73"/>
</g>
<!-- RoutingModule -->
<g id="node7" class="node">
<title>RoutingModule</title>
<polygon fill="#8dd3c7" stroke="black" points="2574.17,-122 2571.17,-126 2550.17,-126 2547.17,-122 2469.83,-122 2469.83,-86 2574.17,-86 2574.17,-122"/>
<text text-anchor="middle" x="2522" y="-99.8" font-family="Times,serif" font-size="14.00">RoutingModule</text>
</g>
<!-- RoutingModule&#45;&gt;AppModule -->
<g id="edge5" class="edge">
<title>RoutingModule&#45;&gt;AppModule</title>
<path fill="none" stroke="black" d="M2559.75,-122.22C2559.75,-122.22 2559.75,-143.73 2559.75,-143.73"/>
<polygon fill="black" stroke="black" points="2556.25,-143.73 2559.75,-153.73 2563.25,-143.73 2556.25,-143.73"/>
</g>
<!-- HomePageComponent -->
<g id="node9" class="node">
<title>HomePageComponent</title>
<polygon fill="#ffffb3" stroke="black" points="964.26,-190 821.74,-190 821.74,-154 964.26,-154 964.26,-190"/>
<text text-anchor="middle" x="893" y="-167.8" font-family="Times,serif" font-size="14.00">HomePageComponent</text>
</g>
<!-- HomePageComponent&#45;&gt;HomePageModule -->
<g id="edge7" class="edge">
<title>HomePageComponent&#45;&gt;HomePageModule</title>
<path fill="none" stroke="black" d="M893,-190.22C893,-190.22 893,-211.73 893,-211.73"/>
<polygon fill="black" stroke="black" points="889.5,-211.73 893,-221.73 896.5,-211.73 889.5,-211.73"/>
</g>
<!-- UsuarioService -->
<g id="node11" class="node">
<title>UsuarioService</title>
<ellipse fill="#fdb462" stroke="black" cx="727" cy="-172" rx="70.62" ry="18"/>
<text text-anchor="middle" x="727" y="-167.8" font-family="Times,serif" font-size="14.00">UsuarioService</text>
</g>
<!-- UsuarioService&#45;&gt;HomePageModule -->
<g id="edge9" class="edge">
<title>UsuarioService&#45;&gt;HomePageModule</title>
<path fill="none" stroke="black" d="M762.28,-187.77C762.28,-207.86 762.28,-240 762.28,-240 762.28,-240 822.23,-240 822.23,-240"/>
<polygon fill="black" stroke="black" points="822.23,-243.5 832.23,-240 822.23,-236.5 822.23,-243.5"/>
</g>
<!-- UsuarioService&#45;&gt;LoginPageModule -->
<g id="edge12" class="edge">
<title>UsuarioService&#45;&gt;LoginPageModule</title>
<path fill="none" stroke="black" d="M691.72,-187.86C691.72,-194.63 691.72,-201 691.72,-201 691.72,-201 115.03,-201 115.03,-201 115.03,-201 115.03,-211.87 115.03,-211.87"/>
<polygon fill="black" stroke="black" points="111.53,-211.87 115.03,-221.87 118.53,-211.87 111.53,-211.87"/>
</g>
<!-- UsuarioService&#45;&gt;RecuperarSenhaModule -->
<g id="edge24" class="edge">
<title>UsuarioService&#45;&gt;RecuperarSenhaModule</title>
<path fill="none" stroke="black" d="M656.23,-172C626.61,-172 598.94,-172 598.94,-172 598.94,-172 598.94,-211.78 598.94,-211.78"/>
<polygon fill="black" stroke="black" points="595.44,-211.78 598.94,-221.78 602.44,-211.78 595.44,-211.78"/>
</g>
<!-- UsuarioService&#45;&gt;ResetaSenhaModule -->
<g id="edge27" class="edge">
<title>UsuarioService&#45;&gt;ResetaSenhaModule</title>
<path fill="none" stroke="black" d="M727,-190.13C727,-200.71 727,-212 727,-212 727,-212 325.85,-212 325.85,-212 325.85,-212 325.85,-212.98 325.85,-212.98"/>
<polygon fill="black" stroke="black" points="322.35,-211.79 325.85,-221.79 329.35,-211.79 322.35,-211.79"/>
</g>
<!-- LoginPageComponent -->
<g id="node12" class="node">
<title>LoginPageComponent</title>
<polygon fill="#ffffb3" stroke="black" points="165.99,-190 24.01,-190 24.01,-154 165.99,-154 165.99,-190"/>
<text text-anchor="middle" x="95" y="-167.8" font-family="Times,serif" font-size="14.00">LoginPageComponent</text>
</g>
<!-- LoginPageComponent&#45;&gt;LoginPageModule -->
<g id="edge10" class="edge">
<title>LoginPageComponent&#45;&gt;LoginPageModule</title>
<path fill="none" stroke="black" d="M74.97,-190.22C74.97,-190.22 74.97,-211.73 74.97,-211.73"/>
<polygon fill="black" stroke="black" points="71.47,-211.73 74.97,-221.73 78.47,-211.73 71.47,-211.73"/>
</g>
<!-- NotFoundComponent -->
<g id="node14" class="node">
<title>NotFoundComponent</title>
<polygon fill="#ffffb3" stroke="black" points="2884.11,-122 2745.89,-122 2745.89,-86 2884.11,-86 2884.11,-122"/>
<text text-anchor="middle" x="2815" y="-99.8" font-family="Times,serif" font-size="14.00">NotFoundComponent</text>
</g>
<!-- NotFoundModule -->
<g id="node15" class="node">
<title>NotFoundModule</title>
<polygon fill="#8dd3c7" stroke="black" points="2873.33,-190 2870.33,-194 2849.33,-194 2846.33,-190 2756.67,-190 2756.67,-154 2873.33,-154 2873.33,-190"/>
<text text-anchor="middle" x="2815" y="-167.8" font-family="Times,serif" font-size="14.00">NotFoundModule</text>
</g>
<!-- NotFoundComponent&#45;&gt;NotFoundModule -->
<g id="edge13" class="edge">
<title>NotFoundComponent&#45;&gt;NotFoundModule</title>
<path fill="none" stroke="black" d="M2815,-122.22C2815,-122.22 2815,-143.73 2815,-143.73"/>
<polygon fill="black" stroke="black" points="2811.5,-143.73 2815,-153.73 2818.5,-143.73 2811.5,-143.73"/>
</g>
<!-- NotFoundComponent  -->
<g id="node16" class="node">
<title>NotFoundComponent </title>
<polygon fill="#fb8072" stroke="black" points="2885.61,-258 2744.39,-258 2744.39,-222 2885.61,-222 2885.61,-258"/>
<text text-anchor="middle" x="2815" y="-235.8" font-family="Times,serif" font-size="14.00">NotFoundComponent </text>
</g>
<!-- NotFoundModule&#45;&gt;NotFoundComponent  -->
<g id="edge14" class="edge">
<title>NotFoundModule&#45;&gt;NotFoundComponent </title>
<path fill="none" stroke="black" stroke-dasharray="5,2" d="M2815,-190.22C2815,-190.22 2815,-211.73 2815,-211.73"/>
<polygon fill="black" stroke="black" points="2811.5,-211.73 2815,-221.73 2818.5,-211.73 2811.5,-211.73"/>
</g>
<!-- PesquisasComponent -->
<g id="node17" class="node">
<title>PesquisasComponent</title>
<polygon fill="#ffffb3" stroke="black" points="1935.77,-122 1800.23,-122 1800.23,-86 1935.77,-86 1935.77,-122"/>
<text text-anchor="middle" x="1868" y="-99.8" font-family="Times,serif" font-size="14.00">PesquisasComponent</text>
</g>
<!-- PesquisasComponent&#45;&gt;PesquisaModule -->
<g id="edge15" class="edge">
<title>PesquisasComponent&#45;&gt;PesquisaModule</title>
<path fill="none" stroke="black" d="M1922.83,-122.22C1922.83,-122.22 1922.83,-143.73 1922.83,-143.73"/>
<polygon fill="black" stroke="black" points="1919.33,-143.73 1922.83,-153.73 1926.33,-143.73 1919.33,-143.73"/>
</g>
<!-- PesquisaService -->
<g id="node19" class="node">
<title>PesquisaService</title>
<ellipse fill="#fdb462" stroke="black" cx="2034" cy="-104" rx="73.57" ry="18"/>
<text text-anchor="middle" x="2034" y="-99.8" font-family="Times,serif" font-size="14.00">PesquisaService</text>
</g>
<!-- PesquisaService&#45;&gt;PesquisaModule -->
<g id="edge17" class="edge">
<title>PesquisaService&#45;&gt;PesquisaModule</title>
<path fill="none" stroke="black" d="M1982.74,-117.11C1982.74,-117.11 1982.74,-143.79 1982.74,-143.79"/>
<polygon fill="black" stroke="black" points="1979.24,-143.79 1982.74,-153.79 1986.24,-143.79 1979.24,-143.79"/>
</g>
<!-- ProjetoService -->
<g id="node20" class="node">
<title>ProjetoService</title>
<ellipse fill="#fdb462" stroke="black" cx="2194" cy="-104" rx="67.77" ry="18"/>
<text text-anchor="middle" x="2194" y="-99.8" font-family="Times,serif" font-size="14.00">ProjetoService</text>
</g>
<!-- ProjetoService&#45;&gt;PesquisaModule -->
<g id="edge18" class="edge">
<title>ProjetoService&#45;&gt;PesquisaModule</title>
<path fill="none" stroke="black" d="M2194,-122.22C2194,-142.37 2194,-172 2194,-172 2194,-172 2015.23,-172 2015.23,-172"/>
<polygon fill="black" stroke="black" points="2015.23,-168.5 2005.23,-172 2015.23,-175.5 2015.23,-168.5"/>
</g>
<!-- ProjetoService&#45;&gt;ProjetosModule -->
<g id="edge21" class="edge">
<title>ProjetoService&#45;&gt;ProjetosModule</title>
<path fill="none" stroke="black" d="M2262.13,-104C2282.58,-104 2299.69,-104 2299.69,-104 2299.69,-104 2299.69,-143.78 2299.69,-143.78"/>
<polygon fill="black" stroke="black" points="2296.19,-143.78 2299.69,-153.78 2303.19,-143.78 2296.19,-143.78"/>
</g>
<!-- ProjetosComponent -->
<g id="node21" class="node">
<title>ProjetosComponent</title>
<polygon fill="#ffffb3" stroke="black" points="2429.72,-122 2302.28,-122 2302.28,-86 2429.72,-86 2429.72,-122"/>
<text text-anchor="middle" x="2366" y="-99.8" font-family="Times,serif" font-size="14.00">ProjetosComponent</text>
</g>
<!-- ProjetosComponent&#45;&gt;ProjetosModule -->
<g id="edge19" class="edge">
<title>ProjetosComponent&#45;&gt;ProjetosModule</title>
<path fill="none" stroke="black" d="M2351.05,-122.22C2351.05,-122.22 2351.05,-143.73 2351.05,-143.73"/>
<polygon fill="black" stroke="black" points="2347.55,-143.73 2351.05,-153.73 2354.55,-143.73 2347.55,-143.73"/>
</g>
<!-- RecuperarSenhaComponent -->
<g id="node23" class="node">
<title>RecuperarSenhaComponent</title>
<polygon fill="#ffffb3" stroke="black" points="593.56,-190 420.44,-190 420.44,-154 593.56,-154 593.56,-190"/>
<text text-anchor="middle" x="507" y="-167.8" font-family="Times,serif" font-size="14.00">RecuperarSenhaComponent</text>
</g>
<!-- RecuperarSenhaComponent&#45;&gt;RecuperarSenhaModule -->
<g id="edge22" class="edge">
<title>RecuperarSenhaComponent&#45;&gt;RecuperarSenhaModule</title>
<path fill="none" stroke="black" d="M521.95,-190.22C521.95,-190.22 521.95,-211.73 521.95,-211.73"/>
<polygon fill="black" stroke="black" points="518.45,-211.73 521.95,-221.73 525.45,-211.73 518.45,-211.73"/>
</g>
<!-- ResetaSenhaComponent -->
<g id="node25" class="node">
<title>ResetaSenhaComponent</title>
<polygon fill="#ffffb3" stroke="black" points="380.36,-190 227.64,-190 227.64,-154 380.36,-154 380.36,-190"/>
<text text-anchor="middle" x="304" y="-167.8" font-family="Times,serif" font-size="14.00">ResetaSenhaComponent</text>
</g>
<!-- ResetaSenhaComponent&#45;&gt;ResetaSenhaModule -->
<g id="edge25" class="edge">
<title>ResetaSenhaComponent&#45;&gt;ResetaSenhaModule</title>
<path fill="none" stroke="black" d="M282.15,-190.22C282.15,-190.22 282.15,-211.73 282.15,-211.73"/>
<polygon fill="black" stroke="black" points="278.65,-211.73 282.15,-221.73 285.65,-211.73 278.65,-211.73"/>
</g>
<!-- SpinnerComponent -->
<g id="node27" class="node">
<title>SpinnerComponent</title>
<polygon fill="#ffffb3" stroke="black" points="1280.38,-190 1155.62,-190 1155.62,-154 1280.38,-154 1280.38,-190"/>
<text text-anchor="middle" x="1218" y="-167.8" font-family="Times,serif" font-size="14.00">SpinnerComponent</text>
</g>
<!-- SpinnerComponent&#45;&gt;SpinnerModule -->
<g id="edge28" class="edge">
<title>SpinnerComponent&#45;&gt;SpinnerModule</title>
<path fill="none" stroke="black" d="M1280.51,-172C1317,-172 1355.93,-172 1355.93,-172 1355.93,-172 1355.93,-132.22 1355.93,-132.22"/>
<polygon fill="black" stroke="black" points="1359.43,-132.22 1355.93,-122.22 1352.43,-132.22 1359.43,-132.22"/>
</g>
</g>
</svg>
