<?xml version="1.0" encoding="UTF-8" standalone="no"?>
<!DOCTYPE svg PUBLIC "-//W3C//DTD SVG 1.1//EN"
 "http://www.w3.org/Graphics/SVG/1.1/DTD/svg11.dtd">
<!-- Generated by graphviz version 2.47.0 (20210316.0004)
 -->
<!-- Title: dependencies Pages: 1 -->
<svg width="2382pt" height="290pt"
 viewBox="0.00 0.00 2382.00 290.00" xmlns="http://www.w3.org/2000/svg" xmlns:xlink="http://www.w3.org/1999/xlink">
<g id="graph0" class="graph" transform="scale(1 1) rotate(0) translate(4 286)">
<title>dependencies</title>
<polygon fill="white" stroke="transparent" points="-4,4 -4,-286 2378,-286 2378,4 -4,4"/>
<text text-anchor="start" x="1166.01" y="-42.4" font-family="Times-12" font-weight="bold" font-size="14.00">Legend</text>
<polygon fill="#ffffb3" stroke="transparent" points="953,-10 953,-30 973,-30 973,-10 953,-10"/>
<text text-anchor="start" x="976.63" y="-15.4" font-family="Times-12" font-size="14.00"> &#160;Declarations</text>
<polygon fill="#8dd3c7" stroke="transparent" points="1066,-10 1066,-30 1086,-30 1086,-10 1066,-10"/>
<text text-anchor="start" x="1089.73" y="-15.4" font-family="Times-12" font-size="14.00"> &#160;Module</text>
<polygon fill="#80b1d3" stroke="transparent" points="1152,-10 1152,-30 1172,-30 1172,-10 1152,-10"/>
<text text-anchor="start" x="1175.78" y="-15.4" font-family="Times-12" font-size="14.00"> &#160;Bootstrap</text>
<polygon fill="#fdb462" stroke="transparent" points="1249,-10 1249,-30 1269,-30 1269,-10 1249,-10"/>
<text text-anchor="start" x="1272.67" y="-15.4" font-family="Times-12" font-size="14.00"> &#160;Providers</text>
<polygon fill="#fb8072" stroke="transparent" points="1345,-10 1345,-30 1365,-30 1365,-10 1345,-10"/>
<text text-anchor="start" x="1368.73" y="-15.4" font-family="Times-12" font-size="14.00"> &#160;Exports</text>
<g id="clust1" class="cluster">
<title>cluster_AppModule</title>
<polygon fill="none" stroke="black" stroke-dasharray="1,5" points="8,-70 8,-274 298,-274 298,-70 8,-70"/>
</g>
<g id="clust2" class="cluster">
<title>cluster_AppModule_declarations</title>
<polygon fill="none" stroke="black" points="168,-78 168,-130 290,-130 290,-78 168,-78"/>
</g>
<g id="clust4" class="cluster">
<title>cluster_AppModule_imports</title>
<polygon fill="none" stroke="black" points="16,-78 16,-130 160,-130 160,-78 16,-78"/>
</g>
<g id="clust6" class="cluster">
<title>cluster_AppModule_bootstrap</title>
<polygon fill="none" stroke="black" points="96,-214 96,-266 220,-266 220,-214 96,-214"/>
</g>
<g id="clust14" class="cluster">
<title>cluster_HomePageModule</title>
<polygon fill="none" stroke="black" stroke-dasharray="1,5" points="306,-70 306,-198 480,-198 480,-70 306,-70"/>
</g>
<g id="clust15" class="cluster">
<title>cluster_HomePageModule_declarations</title>
<polygon fill="none" stroke="black" points="314,-78 314,-130 472,-130 472,-78 314,-78"/>
</g>
<g id="clust21" class="cluster">
<title>cluster_LoginPageModule</title>
<polygon fill="none" stroke="black" stroke-dasharray="1,5" points="488,-70 488,-198 978,-198 978,-70 488,-70"/>
</g>
<g id="clust22" class="cluster">
<title>cluster_LoginPageModule_declarations</title>
<polygon fill="none" stroke="black" points="684,-78 684,-130 842,-130 842,-78 684,-78"/>
</g>
<g id="clust24" class="cluster">
<title>cluster_LoginPageModule_imports</title>
<polygon fill="none" stroke="black" points="850,-78 850,-130 970,-130 970,-78 850,-78"/>
</g>
<g id="clust27" class="cluster">
<title>cluster_LoginPageModule_providers</title>
<polygon fill="none" stroke="black" points="496,-78 496,-130 676,-130 676,-78 496,-78"/>
</g>
<g id="clust28" class="cluster">
<title>cluster_NotFoundModule</title>
<polygon fill="none" stroke="black" stroke-dasharray="1,5" points="2192,-70 2192,-274 2366,-274 2366,-70 2192,-70"/>
</g>
<g id="clust29" class="cluster">
<title>cluster_NotFoundModule_declarations</title>
<polygon fill="none" stroke="black" points="2202,-78 2202,-130 2356,-130 2356,-78 2202,-78"/>
</g>
<g id="clust32" class="cluster">
<title>cluster_NotFoundModule_exports</title>
<polygon fill="none" stroke="black" points="2200,-214 2200,-266 2358,-266 2358,-214 2200,-214"/>
</g>
<g id="clust35" class="cluster">
<title>cluster_RecoverPasswordModule</title>
<polygon fill="none" stroke="black" stroke-dasharray="1,5" points="1302,-70 1302,-198 1758,-198 1758,-70 1302,-70"/>
</g>
<g id="clust36" class="cluster">
<title>cluster_RecoverPasswordModule_declarations</title>
<polygon fill="none" stroke="black" points="1552,-78 1552,-130 1750,-130 1750,-78 1552,-78"/>
</g>
<g id="clust41" class="cluster">
<title>cluster_RecoverPasswordModule_providers</title>
<polygon fill="none" stroke="black" points="1310,-78 1310,-130 1544,-130 1544,-78 1310,-78"/>
</g>
<g id="clust42" class="cluster">
<title>cluster_ResetPasswordModule</title>
<polygon fill="none" stroke="black" stroke-dasharray="1,5" points="1766,-70 1766,-198 2184,-198 2184,-70 1766,-70"/>
</g>
<g id="clust43" class="cluster">
<title>cluster_ResetPasswordModule_declarations</title>
<polygon fill="none" stroke="black" points="1994,-78 1994,-130 2176,-130 2176,-78 1994,-78"/>
</g>
<g id="clust48" class="cluster">
<title>cluster_ResetPasswordModule_providers</title>
<polygon fill="none" stroke="black" points="1774,-78 1774,-130 1986,-130 1986,-78 1774,-78"/>
</g>
<g id="clust49" class="cluster">
<title>cluster_SpinnerModule</title>
<polygon fill="none" stroke="black" stroke-dasharray="1,5" points="986,-138 986,-206 1294,-206 1294,-138 986,-138"/>
</g>
<g id="clust50" class="cluster">
<title>cluster_SpinnerModule_declarations</title>
<polygon fill="none" stroke="black" points="1146,-146 1146,-198 1286,-198 1286,-146 1146,-146"/>
</g>
<g id="clust53" class="cluster">
<title>cluster_SpinnerModule_exports</title>
<polygon fill="none" stroke="black" points="994,-146 994,-198 1138,-198 1138,-146 994,-146"/>
</g>
<!-- AppComponent -->
<g id="node1" class="node">
<title>AppComponent</title>
<polygon fill="#ffffb3" stroke="black" points="281.94,-122 176.06,-122 176.06,-86 281.94,-86 281.94,-122"/>
<text text-anchor="middle" x="229" y="-99.8" font-family="Times,serif" font-size="14.00">AppComponent</text>
</g>
<!-- AppModule -->
<g id="node2" class="node">
<title>AppModule</title>
<polygon fill="#8dd3c7" stroke="black" points="199.66,-190 196.66,-194 175.66,-194 172.66,-190 116.34,-190 116.34,-154 199.66,-154 199.66,-190"/>
<text text-anchor="middle" x="158" y="-167.8" font-family="Times,serif" font-size="14.00">AppModule</text>
</g>
<!-- AppComponent&#45;&gt;AppModule -->
<g id="edge1" class="edge">
<title>AppComponent&#45;&gt;AppModule</title>
<path fill="none" stroke="black" d="M188.05,-122.22C188.05,-122.22 188.05,-143.73 188.05,-143.73"/>
<polygon fill="black" stroke="black" points="184.55,-143.73 188.05,-153.73 191.55,-143.73 184.55,-143.73"/>
</g>
<!-- AppComponent  -->
<g id="node4" class="node">
<title>AppComponent </title>
<polygon fill="#80b1d3" stroke="black" points="212.44,-258 103.56,-258 103.56,-222 212.44,-222 212.44,-258"/>
<text text-anchor="middle" x="158" y="-235.8" font-family="Times,serif" font-size="14.00">AppComponent </text>
</g>
<!-- AppModule&#45;&gt;AppComponent  -->
<g id="edge3" class="edge">
<title>AppModule&#45;&gt;AppComponent </title>
<path fill="none" stroke="black" stroke-dasharray="1,5" d="M158,-190.22C158,-190.22 158,-211.73 158,-211.73"/>
<polygon fill="black" stroke="black" points="154.5,-211.73 158,-221.73 161.5,-211.73 154.5,-211.73"/>
</g>
<!-- AppRoutingModule -->
<g id="node3" class="node">
<title>AppRoutingModule</title>
<polygon fill="#8dd3c7" stroke="black" points="152.27,-122 149.27,-126 128.27,-126 125.27,-122 23.73,-122 23.73,-86 152.27,-86 152.27,-122"/>
<text text-anchor="middle" x="88" y="-99.8" font-family="Times,serif" font-size="14.00">AppRoutingModule</text>
</g>
<!-- AppRoutingModule&#45;&gt;AppModule -->
<g id="edge2" class="edge">
<title>AppRoutingModule&#45;&gt;AppModule</title>
<path fill="none" stroke="black" d="M134.28,-122.22C134.28,-122.22 134.28,-143.73 134.28,-143.73"/>
<polygon fill="black" stroke="black" points="130.78,-143.73 134.28,-153.73 137.78,-143.73 130.78,-143.73"/>
</g>
<!-- HomePageComponent -->
<g id="node5" class="node">
<title>HomePageComponent</title>
<polygon fill="#ffffb3" stroke="black" points="464.26,-122 321.74,-122 321.74,-86 464.26,-86 464.26,-122"/>
<text text-anchor="middle" x="393" y="-99.8" font-family="Times,serif" font-size="14.00">HomePageComponent</text>
</g>
<!-- HomePageModule -->
<g id="node6" class="node">
<title>HomePageModule</title>
<polygon fill="#8dd3c7" stroke="black" points="453.47,-190 450.47,-194 429.47,-194 426.47,-190 332.53,-190 332.53,-154 453.47,-154 453.47,-190"/>
<text text-anchor="middle" x="393" y="-167.8" font-family="Times,serif" font-size="14.00">HomePageModule</text>
</g>
<!-- HomePageComponent&#45;&gt;HomePageModule -->
<g id="edge4" class="edge">
<title>HomePageComponent&#45;&gt;HomePageModule</title>
<path fill="none" stroke="black" d="M393,-122.22C393,-122.22 393,-143.73 393,-143.73"/>
<polygon fill="black" stroke="black" points="389.5,-143.73 393,-153.73 396.5,-143.73 389.5,-143.73"/>
</g>
<!-- LoginPageComponent -->
<g id="node7" class="node">
<title>LoginPageComponent</title>
<polygon fill="#ffffb3" stroke="black" points="833.99,-122 692.01,-122 692.01,-86 833.99,-86 833.99,-122"/>
<text text-anchor="middle" x="763" y="-99.8" font-family="Times,serif" font-size="14.00">LoginPageComponent</text>
</g>
<!-- LoginPageModule -->
<g id="node8" class="node">
<title>LoginPageModule</title>
<polygon fill="#8dd3c7" stroke="black" points="823.2,-190 820.2,-194 799.2,-194 796.2,-190 702.8,-190 702.8,-154 823.2,-154 823.2,-190"/>
<text text-anchor="middle" x="763" y="-167.8" font-family="Times,serif" font-size="14.00">LoginPageModule</text>
</g>
<!-- LoginPageComponent&#45;&gt;LoginPageModule -->
<g id="edge5" class="edge">
<title>LoginPageComponent&#45;&gt;LoginPageModule</title>
<path fill="none" stroke="black" d="M763,-122.22C763,-122.22 763,-143.73 763,-143.73"/>
<polygon fill="black" stroke="black" points="759.5,-143.73 763,-153.73 766.5,-143.73 759.5,-143.73"/>
</g>
<!-- SpinnerModule -->
<g id="node9" class="node">
<title>SpinnerModule</title>
<polygon fill="#8dd3c7" stroke="black" points="961.6,-122 958.6,-126 937.6,-126 934.6,-122 858.4,-122 858.4,-86 961.6,-86 961.6,-122"/>
<text text-anchor="middle" x="910" y="-99.8" font-family="Times,serif" font-size="14.00">SpinnerModule</text>
</g>
<!-- SpinnerModule&#45;&gt;LoginPageModule -->
<g id="edge6" class="edge">
<title>SpinnerModule&#45;&gt;LoginPageModule</title>
<path fill="none" stroke="black" d="M910,-122.29C910,-144.21 910,-178 910,-178 910,-178 833.21,-178 833.21,-178"/>
<polygon fill="black" stroke="black" points="833.21,-174.5 823.21,-178 833.21,-181.5 833.21,-174.5"/>
</g>
<!-- RecoverPasswordModule -->
<g id="node15" class="node">
<title>RecoverPasswordModule</title>
<polygon fill="#8dd3c7" stroke="black" points="1506.84,-190 1503.84,-194 1482.84,-194 1479.84,-190 1347.16,-190 1347.16,-154 1506.84,-154 1506.84,-190"/>
<text text-anchor="middle" x="1427" y="-167.8" font-family="Times,serif" font-size="14.00">RecoverPasswordModule</text>
</g>
<!-- SpinnerModule&#45;&gt;RecoverPasswordModule -->
<g id="edge11" class="edge">
<title>SpinnerModule&#45;&gt;RecoverPasswordModule</title>
<path fill="none" stroke="black" d="M961.94,-98C1067.71,-98 1298.13,-98 1298.13,-98 1298.13,-98 1298.13,-172 1298.13,-172 1298.13,-172 1336.85,-172 1336.85,-172"/>
<polygon fill="black" stroke="black" points="1336.85,-175.5 1346.85,-172 1336.85,-168.5 1336.85,-175.5"/>
</g>
<!-- ResetPasswordModule -->
<g id="node18" class="node">
<title>ResetPasswordModule</title>
<polygon fill="#8dd3c7" stroke="black" points="1952.3,-190 1949.3,-194 1928.3,-194 1925.3,-190 1807.7,-190 1807.7,-154 1952.3,-154 1952.3,-190"/>
<text text-anchor="middle" x="1880" y="-167.8" font-family="Times,serif" font-size="14.00">ResetPasswordModule</text>
</g>
<!-- SpinnerModule&#45;&gt;ResetPasswordModule -->
<g id="edge14" class="edge">
<title>SpinnerModule&#45;&gt;ResetPasswordModule</title>
<path fill="none" stroke="black" d="M884.23,-122.19C884.23,-130.28 884.23,-138 884.23,-138 884.23,-138 1855.95,-138 1855.95,-138 1855.95,-138 1855.95,-143.81 1855.95,-143.81"/>
<polygon fill="black" stroke="black" points="1852.45,-143.81 1855.95,-153.81 1859.45,-143.81 1852.45,-143.81"/>
</g>
<!-- SpinnerComponent  -->
<g id="node21" class="node">
<title>SpinnerComponent </title>
<polygon fill="#fb8072" stroke="black" points="1130.38,-190 1001.62,-190 1001.62,-154 1130.38,-154 1130.38,-190"/>
<text text-anchor="middle" x="1066" y="-167.8" font-family="Times,serif" font-size="14.00">SpinnerComponent </text>
</g>
<!-- SpinnerModule&#45;&gt;SpinnerComponent  -->
<g id="edge17" class="edge">
<title>SpinnerModule&#45;&gt;SpinnerComponent </title>
<path fill="none" stroke="black" stroke-dasharray="5,2" d="M935.77,-122.27C935.77,-140.56 935.77,-166 935.77,-166 935.77,-166 991.65,-166 991.65,-166"/>
<polygon fill="black" stroke="black" points="991.65,-169.5 1001.65,-166 991.65,-162.5 991.65,-169.5"/>
</g>
<!-- LoginPageService -->
<g id="node10" class="node">
<title>LoginPageService</title>
<ellipse fill="#fdb462" stroke="black" cx="586" cy="-104" rx="81.66" ry="18"/>
<text text-anchor="middle" x="586" y="-99.8" font-family="Times,serif" font-size="14.00">LoginPageService</text>
</g>
<!-- LoginPageService&#45;&gt;LoginPageModule -->
<g id="edge7" class="edge">
<title>LoginPageService&#45;&gt;LoginPageModule</title>
<path fill="none" stroke="black" d="M586,-122.22C586,-142.37 586,-172 586,-172 586,-172 692.58,-172 692.58,-172"/>
<polygon fill="black" stroke="black" points="692.58,-175.5 702.58,-172 692.58,-168.5 692.58,-175.5"/>
</g>
<!-- NotFoundComponent -->
<g id="node11" class="node">
<title>NotFoundComponent</title>
<polygon fill="#ffffb3" stroke="black" points="2348.11,-122 2209.89,-122 2209.89,-86 2348.11,-86 2348.11,-122"/>
<text text-anchor="middle" x="2279" y="-99.8" font-family="Times,serif" font-size="14.00">NotFoundComponent</text>
</g>
<!-- NotFoundModule -->
<g id="node12" class="node">
<title>NotFoundModule</title>
<polygon fill="#8dd3c7" stroke="black" points="2337.33,-190 2334.33,-194 2313.33,-194 2310.33,-190 2220.67,-190 2220.67,-154 2337.33,-154 2337.33,-190"/>
<text text-anchor="middle" x="2279" y="-167.8" font-family="Times,serif" font-size="14.00">NotFoundModule</text>
</g>
<!-- NotFoundComponent&#45;&gt;NotFoundModule -->
<g id="edge8" class="edge">
<title>NotFoundComponent&#45;&gt;NotFoundModule</title>
<path fill="none" stroke="black" d="M2279,-122.22C2279,-122.22 2279,-143.73 2279,-143.73"/>
<polygon fill="black" stroke="black" points="2275.5,-143.73 2279,-153.73 2282.5,-143.73 2275.5,-143.73"/>
</g>
<!-- NotFoundComponent  -->
<g id="node13" class="node">
<title>NotFoundComponent </title>
<polygon fill="#fb8072" stroke="black" points="2349.61,-258 2208.39,-258 2208.39,-222 2349.61,-222 2349.61,-258"/>
<text text-anchor="middle" x="2279" y="-235.8" font-family="Times,serif" font-size="14.00">NotFoundComponent </text>
</g>
<!-- NotFoundModule&#45;&gt;NotFoundComponent  -->
<g id="edge9" class="edge">
<title>NotFoundModule&#45;&gt;NotFoundComponent </title>
<path fill="none" stroke="black" stroke-dasharray="5,2" d="M2279,-190.22C2279,-190.22 2279,-211.73 2279,-211.73"/>
<polygon fill="black" stroke="black" points="2275.5,-211.73 2279,-221.73 2282.5,-211.73 2275.5,-211.73"/>
</g>
<!-- RecoverPasswordComponent -->
<g id="node14" class="node">
<title>RecoverPasswordComponent</title>
<polygon fill="#ffffb3" stroke="black" points="1741.63,-122 1560.37,-122 1560.37,-86 1741.63,-86 1741.63,-122"/>
<text text-anchor="middle" x="1651" y="-99.8" font-family="Times,serif" font-size="14.00">RecoverPasswordComponent</text>
</g>
<!-- RecoverPasswordComponent&#45;&gt;RecoverPasswordModule -->
<g id="edge10" class="edge">
<title>RecoverPasswordComponent&#45;&gt;RecoverPasswordModule</title>
<path fill="none" stroke="black" d="M1651,-122.22C1651,-142.37 1651,-172 1651,-172 1651,-172 1516.92,-172 1516.92,-172"/>
<polygon fill="black" stroke="black" points="1516.92,-168.5 1506.92,-172 1516.92,-175.5 1516.92,-168.5"/>
</g>
<!-- RecoverPasswordService -->
<g id="node16" class="node">
<title>RecoverPasswordService</title>
<ellipse fill="#fdb462" stroke="black" cx="1427" cy="-104" rx="109.35" ry="18"/>
<text text-anchor="middle" x="1427" y="-99.8" font-family="Times,serif" font-size="14.00">RecoverPasswordService</text>
</g>
<!-- RecoverPasswordService&#45;&gt;RecoverPasswordModule -->
<g id="edge12" class="edge">
<title>RecoverPasswordService&#45;&gt;RecoverPasswordModule</title>
<path fill="none" stroke="black" d="M1427,-122.22C1427,-122.22 1427,-143.73 1427,-143.73"/>
<polygon fill="black" stroke="black" points="1423.5,-143.73 1427,-153.73 1430.5,-143.73 1423.5,-143.73"/>
</g>
<!-- ResetPasswordComponent -->
<g id="node17" class="node">
<title>ResetPasswordComponent</title>
<polygon fill="#ffffb3" stroke="black" points="2168.09,-122 2001.91,-122 2001.91,-86 2168.09,-86 2168.09,-122"/>
<text text-anchor="middle" x="2085" y="-99.8" font-family="Times,serif" font-size="14.00">ResetPasswordComponent</text>
</g>
<!-- ResetPasswordComponent&#45;&gt;ResetPasswordModule -->
<g id="edge13" class="edge">
<title>ResetPasswordComponent&#45;&gt;ResetPasswordModule</title>
<path fill="none" stroke="black" d="M2085,-122.22C2085,-142.37 2085,-172 2085,-172 2085,-172 1962.28,-172 1962.28,-172"/>
<polygon fill="black" stroke="black" points="1962.28,-168.5 1952.28,-172 1962.28,-175.5 1962.28,-168.5"/>
</g>
<!-- ResetPasswordService -->
<g id="node19" class="node">
<title>ResetPasswordService</title>
<ellipse fill="#fdb462" stroke="black" cx="1880" cy="-104" rx="98.41" ry="18"/>
<text text-anchor="middle" x="1880" y="-99.8" font-family="Times,serif" font-size="14.00">ResetPasswordService</text>
</g>
<!-- ResetPasswordService&#45;&gt;ResetPasswordModule -->
<g id="edge15" class="edge">
<title>ResetPasswordService&#45;&gt;ResetPasswordModule</title>
<path fill="none" stroke="black" d="M1904.05,-121.51C1904.05,-121.51 1904.05,-143.84 1904.05,-143.84"/>
<polygon fill="black" stroke="black" points="1900.55,-143.84 1904.05,-153.84 1907.55,-143.84 1900.55,-143.84"/>
</g>
<!-- SpinnerComponent -->
<g id="node20" class="node">
<title>SpinnerComponent</title>
<polygon fill="#ffffb3" stroke="black" points="1278.38,-190 1153.62,-190 1153.62,-154 1278.38,-154 1278.38,-190"/>
<text text-anchor="middle" x="1216" y="-167.8" font-family="Times,serif" font-size="14.00">SpinnerComponent</text>
</g>
<!-- SpinnerComponent&#45;&gt;SpinnerModule -->
<g id="edge16" class="edge">
<title>SpinnerComponent&#45;&gt;SpinnerModule</title>
<path fill="none" stroke="black" d="M1216,-153.73C1216,-135.44 1216,-110 1216,-110 1216,-110 971.56,-110 971.56,-110"/>
<polygon fill="black" stroke="black" points="971.56,-106.5 961.56,-110 971.56,-113.5 971.56,-106.5"/>
</g>
</g>
</svg>
