<?xml version="1.0" encoding="UTF-8" standalone="no"?>
<!DOCTYPE svg PUBLIC "-//W3C//DTD SVG 1.1//EN"
 "http://www.w3.org/Graphics/SVG/1.1/DTD/svg11.dtd">
<!-- Generated by graphviz version 2.47.0 (20210316.0004)
 -->
<!-- Title: dependencies Pages: 1 -->
<svg width="646pt" height="211pt"
 viewBox="0.00 0.00 646.00 211.00" xmlns="http://www.w3.org/2000/svg" xmlns:xlink="http://www.w3.org/1999/xlink">
<g id="graph0" class="graph" transform="scale(1 1) rotate(0) translate(4 207)">
<title>dependencies</title>
<polygon fill="white" stroke="transparent" points="-4,4 -4,-207 642,-207 642,4 -4,4"/>
<text text-anchor="start" x="298.01" y="-42.4" font-family="Times-12" font-weight="bold" font-size="14.00">Legend</text>
<polygon fill="#ffffb3" stroke="transparent" points="85,-10 85,-30 105,-30 105,-10 85,-10"/>
<text text-anchor="start" x="108.63" y="-15.4" font-family="Times-12" font-size="14.00"> &#160;Declarations</text>
<polygon fill="#8dd3c7" stroke="transparent" points="198,-10 198,-30 218,-30 218,-10 198,-10"/>
<text text-anchor="start" x="221.73" y="-15.4" font-family="Times-12" font-size="14.00"> &#160;Module</text>
<polygon fill="#80b1d3" stroke="transparent" points="284,-10 284,-30 304,-30 304,-10 284,-10"/>
<text text-anchor="start" x="307.78" y="-15.4" font-family="Times-12" font-size="14.00"> &#160;Bootstrap</text>
<polygon fill="#fdb462" stroke="transparent" points="381,-10 381,-30 401,-30 401,-10 381,-10"/>
<text text-anchor="start" x="404.67" y="-15.4" font-family="Times-12" font-size="14.00"> &#160;Providers</text>
<polygon fill="#fb8072" stroke="transparent" points="477,-10 477,-30 497,-30 497,-10 477,-10"/>
<text text-anchor="start" x="500.73" y="-15.4" font-family="Times-12" font-size="14.00"> &#160;Exports</text>
<g id="clust1" class="cluster">
<title>cluster_PesquisaModule</title>
<polygon fill="none" stroke="black" stroke-dasharray="1,5" points="8,-70 8,-195 630,-195 630,-70 8,-70"/>
</g>
<g id="clust4" class="cluster">
<title>cluster_PesquisaModule_imports</title>
<polygon fill="none" stroke="black" points="502,-78 502,-130 622,-130 622,-78 502,-78"/>
</g>
<g id="clust7" class="cluster">
<title>cluster_PesquisaModule_providers</title>
<polygon fill="none" stroke="black" points="176,-78 176,-130 494,-130 494,-78 176,-78"/>
</g>
<g id="clust2" class="cluster">
<title>cluster_PesquisaModule_declarations</title>
<polygon fill="none" stroke="black" points="16,-78 16,-130 168,-130 168,-78 16,-78"/>
</g>
<!-- PesquisasComponent -->
<g id="node1" class="node">
<title>PesquisasComponent</title>
<polygon fill="#ffffb3" stroke="black" points="159.77,-122 24.23,-122 24.23,-86 159.77,-86 159.77,-122"/>
<text text-anchor="middle" x="92" y="-99.8" font-family="Times,serif" font-size="14.00">PesquisasComponent</text>
</g>
<!-- PesquisaModule -->
<g id="node2" class="node">
<title>PesquisaModule</title>
<polygon fill="#8dd3c7" stroke="black" points="386.04,-187 383.04,-191 362.04,-191 359.04,-187 277.96,-187 277.96,-151 386.04,-151 386.04,-187"/>
<text text-anchor="middle" x="332" y="-164.8" font-family="Times,serif" font-size="14.00">PesquisaModule</text>
</g>
<!-- PesquisasComponent&#45;&gt;PesquisaModule -->
<g id="edge1" class="edge">
<title>PesquisasComponent&#45;&gt;PesquisaModule</title>
<path fill="none" stroke="black" d="M92,-122.11C92,-141.34 92,-169 92,-169 92,-169 267.84,-169 267.84,-169"/>
<polygon fill="black" stroke="black" points="267.84,-172.5 277.84,-169 267.84,-165.5 267.84,-172.5"/>
</g>
<!-- SpinnerModule -->
<g id="node3" class="node">
<title>SpinnerModule</title>
<polygon fill="#8dd3c7" stroke="black" points="613.6,-122 610.6,-126 589.6,-126 586.6,-122 510.4,-122 510.4,-86 613.6,-86 613.6,-122"/>
<text text-anchor="middle" x="562" y="-99.8" font-family="Times,serif" font-size="14.00">SpinnerModule</text>
</g>
<!-- SpinnerModule&#45;&gt;PesquisaModule -->
<g id="edge2" class="edge">
<title>SpinnerModule&#45;&gt;PesquisaModule</title>
<path fill="none" stroke="black" d="M562,-122.11C562,-141.34 562,-169 562,-169 562,-169 396.22,-169 396.22,-169"/>
<polygon fill="black" stroke="black" points="396.22,-165.5 386.22,-169 396.22,-172.5 396.22,-165.5"/>
</g>
<!-- PesquisaService -->
<g id="node4" class="node">
<title>PesquisaService</title>
<ellipse fill="#fdb462" stroke="black" cx="412" cy="-104" rx="73.57" ry="18"/>
<text text-anchor="middle" x="412" y="-99.8" font-family="Times,serif" font-size="14.00">PesquisaService</text>
</g>
<!-- PesquisaService&#45;&gt;PesquisaModule -->
<g id="edge3" class="edge">
<title>PesquisaService&#45;&gt;PesquisaModule</title>
<path fill="none" stroke="black" d="M362.24,-117.47C362.24,-117.47 362.24,-140.86 362.24,-140.86"/>
<polygon fill="black" stroke="black" points="358.74,-140.86 362.24,-150.86 365.74,-140.86 358.74,-140.86"/>
</g>
<!-- ProjetoService -->
<g id="node5" class="node">
<title>ProjetoService</title>
<ellipse fill="#fdb462" stroke="black" cx="252" cy="-104" rx="67.77" ry="18"/>
<text text-anchor="middle" x="252" y="-99.8" font-family="Times,serif" font-size="14.00">ProjetoService</text>
</g>
<!-- ProjetoService&#45;&gt;PesquisaModule -->
<g id="edge4" class="edge">
<title>ProjetoService&#45;&gt;PesquisaModule</title>
<path fill="none" stroke="black" d="M298.81,-117.15C298.81,-117.15 298.81,-140.69 298.81,-140.69"/>
<polygon fill="black" stroke="black" points="295.31,-140.69 298.81,-150.69 302.31,-140.69 295.31,-140.69"/>
</g>
</g>
</svg>
