<?xml version="1.0" encoding="UTF-8" standalone="no"?>
<!DOCTYPE svg PUBLIC "-//W3C//DTD SVG 1.1//EN"
 "http://www.w3.org/Graphics/SVG/1.1/DTD/svg11.dtd">
<!-- Generated by graphviz version 2.47.0 (20210316.0004)
 -->
<!-- Title: dependencies Pages: 1 -->
<svg width="504pt" height="211pt"
 viewBox="0.00 0.00 504.00 211.00" xmlns="http://www.w3.org/2000/svg" xmlns:xlink="http://www.w3.org/1999/xlink">
<g id="graph0" class="graph" transform="scale(1 1) rotate(0) translate(4 207)">
<title>dependencies</title>
<polygon fill="white" stroke="transparent" points="-4,4 -4,-207 500,-207 500,4 -4,4"/>
<text text-anchor="start" x="227.01" y="-42.4" font-family="Times-12" font-weight="bold" font-size="14.00">Legend</text>
<polygon fill="#ffffb3" stroke="transparent" points="14,-10 14,-30 34,-30 34,-10 14,-10"/>
<text text-anchor="start" x="37.63" y="-15.4" font-family="Times-12" font-size="14.00"> &#160;Declarations</text>
<polygon fill="#8dd3c7" stroke="transparent" points="127,-10 127,-30 147,-30 147,-10 127,-10"/>
<text text-anchor="start" x="150.73" y="-15.4" font-family="Times-12" font-size="14.00"> &#160;Module</text>
<polygon fill="#80b1d3" stroke="transparent" points="213,-10 213,-30 233,-30 233,-10 213,-10"/>
<text text-anchor="start" x="236.78" y="-15.4" font-family="Times-12" font-size="14.00"> &#160;Bootstrap</text>
<polygon fill="#fdb462" stroke="transparent" points="310,-10 310,-30 330,-30 330,-10 310,-10"/>
<text text-anchor="start" x="333.67" y="-15.4" font-family="Times-12" font-size="14.00"> &#160;Providers</text>
<polygon fill="#fb8072" stroke="transparent" points="406,-10 406,-30 426,-30 426,-10 406,-10"/>
<text text-anchor="start" x="429.73" y="-15.4" font-family="Times-12" font-size="14.00"> &#160;Exports</text>
<g id="clust1" class="cluster">
<title>cluster_ResetaSenhaModule</title>
<polygon fill="none" stroke="black" stroke-dasharray="1,5" points="9,-70 9,-195 487,-195 487,-70 9,-70"/>
</g>
<g id="clust4" class="cluster">
<title>cluster_ResetaSenhaModule_imports</title>
<polygon fill="none" stroke="black" points="359,-78 359,-130 479,-130 479,-78 359,-78"/>
</g>
<g id="clust2" class="cluster">
<title>cluster_ResetaSenhaModule_declarations</title>
<polygon fill="none" stroke="black" points="183,-78 183,-130 351,-130 351,-78 183,-78"/>
</g>
<g id="clust7" class="cluster">
<title>cluster_ResetaSenhaModule_providers</title>
<polygon fill="none" stroke="black" points="17,-78 17,-130 175,-130 175,-78 17,-78"/>
</g>
<!-- ResetaSenhaComponent -->
<g id="node1" class="node">
<title>ResetaSenhaComponent</title>
<polygon fill="#ffffb3" stroke="black" points="343.36,-122 190.64,-122 190.64,-86 343.36,-86 343.36,-122"/>
<text text-anchor="middle" x="267" y="-99.8" font-family="Times,serif" font-size="14.00">ResetaSenhaComponent</text>
</g>
<!-- ResetaSenhaModule -->
<g id="node2" class="node">
<title>ResetaSenhaModule</title>
<polygon fill="#8dd3c7" stroke="black" points="332.58,-187 329.58,-191 308.58,-191 305.58,-187 201.42,-187 201.42,-151 332.58,-151 332.58,-187"/>
<text text-anchor="middle" x="267" y="-164.8" font-family="Times,serif" font-size="14.00">ResetaSenhaModule</text>
</g>
<!-- ResetaSenhaComponent&#45;&gt;ResetaSenhaModule -->
<g id="edge1" class="edge">
<title>ResetaSenhaComponent&#45;&gt;ResetaSenhaModule</title>
<path fill="none" stroke="black" d="M267,-122.11C267,-122.11 267,-140.99 267,-140.99"/>
<polygon fill="black" stroke="black" points="263.5,-140.99 267,-150.99 270.5,-140.99 263.5,-140.99"/>
</g>
<!-- SpinnerModule -->
<g id="node3" class="node">
<title>SpinnerModule</title>
<polygon fill="#8dd3c7" stroke="black" points="470.6,-122 467.6,-126 446.6,-126 443.6,-122 367.4,-122 367.4,-86 470.6,-86 470.6,-122"/>
<text text-anchor="middle" x="419" y="-99.8" font-family="Times,serif" font-size="14.00">SpinnerModule</text>
</g>
<!-- SpinnerModule&#45;&gt;ResetaSenhaModule -->
<g id="edge2" class="edge">
<title>SpinnerModule&#45;&gt;ResetaSenhaModule</title>
<path fill="none" stroke="black" d="M419,-122.11C419,-141.34 419,-169 419,-169 419,-169 342.79,-169 342.79,-169"/>
<polygon fill="black" stroke="black" points="342.79,-165.5 332.79,-169 342.79,-172.5 342.79,-165.5"/>
</g>
<!-- UsuarioService -->
<g id="node4" class="node">
<title>UsuarioService</title>
<ellipse fill="#fdb462" stroke="black" cx="96" cy="-104" rx="70.62" ry="18"/>
<text text-anchor="middle" x="96" y="-99.8" font-family="Times,serif" font-size="14.00">UsuarioService</text>
</g>
<!-- UsuarioService&#45;&gt;ResetaSenhaModule -->
<g id="edge3" class="edge">
<title>UsuarioService&#45;&gt;ResetaSenhaModule</title>
<path fill="none" stroke="black" d="M96,-122.11C96,-141.34 96,-169 96,-169 96,-169 191.38,-169 191.38,-169"/>
<polygon fill="black" stroke="black" points="191.38,-172.5 201.38,-169 191.38,-165.5 191.38,-172.5"/>
</g>
</g>
</svg>
