<?xml version="1.0" encoding="UTF-8" standalone="no"?>
<!DOCTYPE svg PUBLIC "-//W3C//DTD SVG 1.1//EN"
 "http://www.w3.org/Graphics/SVG/1.1/DTD/svg11.dtd">
<!-- Generated by graphviz version 2.47.0 (20210316.0004)
 -->
<!-- Title: dependencies Pages: 1 -->
<svg width="524pt" height="211pt"
 viewBox="0.00 0.00 524.00 211.00" xmlns="http://www.w3.org/2000/svg" xmlns:xlink="http://www.w3.org/1999/xlink">
<g id="graph0" class="graph" transform="scale(1 1) rotate(0) translate(4 207)">
<title>dependencies</title>
<polygon fill="white" stroke="transparent" points="-4,4 -4,-207 520,-207 520,4 -4,4"/>
<text text-anchor="start" x="237.01" y="-42.4" font-family="Times-12" font-weight="bold" font-size="14.00">Legend</text>
<polygon fill="#ffffb3" stroke="transparent" points="24,-10 24,-30 44,-30 44,-10 24,-10"/>
<text text-anchor="start" x="47.63" y="-15.4" font-family="Times-12" font-size="14.00"> &#160;Declarations</text>
<polygon fill="#8dd3c7" stroke="transparent" points="137,-10 137,-30 157,-30 157,-10 137,-10"/>
<text text-anchor="start" x="160.73" y="-15.4" font-family="Times-12" font-size="14.00"> &#160;Module</text>
<polygon fill="#80b1d3" stroke="transparent" points="223,-10 223,-30 243,-30 243,-10 223,-10"/>
<text text-anchor="start" x="246.78" y="-15.4" font-family="Times-12" font-size="14.00"> &#160;Bootstrap</text>
<polygon fill="#fdb462" stroke="transparent" points="320,-10 320,-30 340,-30 340,-10 320,-10"/>
<text text-anchor="start" x="343.67" y="-15.4" font-family="Times-12" font-size="14.00"> &#160;Providers</text>
<polygon fill="#fb8072" stroke="transparent" points="416,-10 416,-30 436,-30 436,-10 416,-10"/>
<text text-anchor="start" x="439.73" y="-15.4" font-family="Times-12" font-size="14.00"> &#160;Exports</text>
<g id="clust1" class="cluster">
<title>cluster_RecuperarSenhaModule</title>
<polygon fill="none" stroke="black" stroke-dasharray="1,5" points="8,-70 8,-195 508,-195 508,-70 8,-70"/>
</g>
<g id="clust4" class="cluster">
<title>cluster_RecuperarSenhaModule_imports</title>
<polygon fill="none" stroke="black" points="380,-78 380,-130 500,-130 500,-78 380,-78"/>
</g>
<g id="clust2" class="cluster">
<title>cluster_RecuperarSenhaModule_declarations</title>
<polygon fill="none" stroke="black" points="182,-78 182,-130 372,-130 372,-78 182,-78"/>
</g>
<g id="clust7" class="cluster">
<title>cluster_RecuperarSenhaModule_providers</title>
<polygon fill="none" stroke="black" points="16,-78 16,-130 174,-130 174,-78 16,-78"/>
</g>
<!-- RecuperarSenhaComponent -->
<g id="node1" class="node">
<title>RecuperarSenhaComponent</title>
<polygon fill="#ffffb3" stroke="black" points="363.56,-122 190.44,-122 190.44,-86 363.56,-86 363.56,-122"/>
<text text-anchor="middle" x="277" y="-99.8" font-family="Times,serif" font-size="14.00">RecuperarSenhaComponent</text>
</g>
<!-- RecuperarSenhaModule -->
<g id="node2" class="node">
<title>RecuperarSenhaModule</title>
<polygon fill="#8dd3c7" stroke="black" points="352.78,-187 349.78,-191 328.78,-191 325.78,-187 201.22,-187 201.22,-151 352.78,-151 352.78,-187"/>
<text text-anchor="middle" x="277" y="-164.8" font-family="Times,serif" font-size="14.00">RecuperarSenhaModule</text>
</g>
<!-- RecuperarSenhaComponent&#45;&gt;RecuperarSenhaModule -->
<g id="edge1" class="edge">
<title>RecuperarSenhaComponent&#45;&gt;RecuperarSenhaModule</title>
<path fill="none" stroke="black" d="M277,-122.11C277,-122.11 277,-140.99 277,-140.99"/>
<polygon fill="black" stroke="black" points="273.5,-140.99 277,-150.99 280.5,-140.99 273.5,-140.99"/>
</g>
<!-- SpinnerModule -->
<g id="node3" class="node">
<title>SpinnerModule</title>
<polygon fill="#8dd3c7" stroke="black" points="491.6,-122 488.6,-126 467.6,-126 464.6,-122 388.4,-122 388.4,-86 491.6,-86 491.6,-122"/>
<text text-anchor="middle" x="440" y="-99.8" font-family="Times,serif" font-size="14.00">SpinnerModule</text>
</g>
<!-- SpinnerModule&#45;&gt;RecuperarSenhaModule -->
<g id="edge2" class="edge">
<title>SpinnerModule&#45;&gt;RecuperarSenhaModule</title>
<path fill="none" stroke="black" d="M440,-122.11C440,-141.34 440,-169 440,-169 440,-169 362.77,-169 362.77,-169"/>
<polygon fill="black" stroke="black" points="362.77,-165.5 352.77,-169 362.77,-172.5 362.77,-165.5"/>
</g>
<!-- UsuarioService -->
<g id="node4" class="node">
<title>UsuarioService</title>
<ellipse fill="#fdb462" stroke="black" cx="95" cy="-104" rx="70.62" ry="18"/>
<text text-anchor="middle" x="95" y="-99.8" font-family="Times,serif" font-size="14.00">UsuarioService</text>
</g>
<!-- UsuarioService&#45;&gt;RecuperarSenhaModule -->
<g id="edge3" class="edge">
<title>UsuarioService&#45;&gt;RecuperarSenhaModule</title>
<path fill="none" stroke="black" d="M95,-122.11C95,-141.34 95,-169 95,-169 95,-169 191.13,-169 191.13,-169"/>
<polygon fill="black" stroke="black" points="191.13,-172.5 201.13,-169 191.13,-165.5 191.13,-172.5"/>
</g>
</g>
</svg>
