<?xml version="1.0" encoding="UTF-8" standalone="no"?>
<!DOCTYPE svg PUBLIC "-//W3C//DTD SVG 1.1//EN"
 "http://www.w3.org/Graphics/SVG/1.1/DTD/svg11.dtd">
<!-- Generated by graphviz version 2.47.0 (20210316.0004)
 -->
<!-- Title: dependencies Pages: 1 -->
<svg width="504pt" height="211pt"
 viewBox="0.00 0.00 504.00 211.00" xmlns="http://www.w3.org/2000/svg" xmlns:xlink="http://www.w3.org/1999/xlink">
<g id="graph0" class="graph" transform="scale(1 1) rotate(0) translate(4 207)">
<title>dependencies</title>
<polygon fill="white" stroke="transparent" points="-4,4 -4,-207 500,-207 500,4 -4,4"/>
<text text-anchor="start" x="227.01" y="-42.4" font-family="Times-12" font-weight="bold" font-size="14.00">Legend</text>
<polygon fill="#ffffb3" stroke="transparent" points="14,-10 14,-30 34,-30 34,-10 14,-10"/>
<text text-anchor="start" x="37.63" y="-15.4" font-family="Times-12" font-size="14.00"> &#160;Declarations</text>
<polygon fill="#8dd3c7" stroke="transparent" points="127,-10 127,-30 147,-30 147,-10 127,-10"/>
<text text-anchor="start" x="150.73" y="-15.4" font-family="Times-12" font-size="14.00"> &#160;Module</text>
<polygon fill="#80b1d3" stroke="transparent" points="213,-10 213,-30 233,-30 233,-10 213,-10"/>
<text text-anchor="start" x="236.78" y="-15.4" font-family="Times-12" font-size="14.00"> &#160;Bootstrap</text>
<polygon fill="#fdb462" stroke="transparent" points="310,-10 310,-30 330,-30 330,-10 310,-10"/>
<text text-anchor="start" x="333.67" y="-15.4" font-family="Times-12" font-size="14.00"> &#160;Providers</text>
<polygon fill="#fb8072" stroke="transparent" points="406,-10 406,-30 426,-30 426,-10 406,-10"/>
<text text-anchor="start" x="429.73" y="-15.4" font-family="Times-12" font-size="14.00"> &#160;Exports</text>
<g id="clust1" class="cluster">
<title>cluster_AnotacaoModule</title>
<polygon fill="none" stroke="black" stroke-dasharray="1,5" points="12,-70 12,-195 484,-195 484,-70 12,-70"/>
</g>
<g id="clust2" class="cluster">
<title>cluster_AnotacaoModule_declarations</title>
<polygon fill="none" stroke="black" points="326,-78 326,-130 476,-130 476,-78 326,-78"/>
</g>
<g id="clust4" class="cluster">
<title>cluster_AnotacaoModule_imports</title>
<polygon fill="none" stroke="black" points="198,-78 198,-130 318,-130 318,-78 198,-78"/>
</g>
<g id="clust7" class="cluster">
<title>cluster_AnotacaoModule_providers</title>
<polygon fill="none" stroke="black" points="20,-78 20,-130 190,-130 190,-78 20,-78"/>
</g>
<!-- AnotacaoComponent -->
<g id="node1" class="node">
<title>AnotacaoComponent</title>
<polygon fill="#ffffb3" stroke="black" points="468.47,-122 333.53,-122 333.53,-86 468.47,-86 468.47,-122"/>
<text text-anchor="middle" x="401" y="-99.8" font-family="Times,serif" font-size="14.00">AnotacaoComponent</text>
</g>
<!-- AnotacaoModule -->
<g id="node2" class="node">
<title>AnotacaoModule</title>
<polygon fill="#8dd3c7" stroke="black" points="314.69,-187 311.69,-191 290.69,-191 287.69,-187 201.31,-187 201.31,-151 314.69,-151 314.69,-187"/>
<text text-anchor="middle" x="258" y="-164.8" font-family="Times,serif" font-size="14.00">AnotacaoModule</text>
</g>
<!-- AnotacaoComponent&#45;&gt;AnotacaoModule -->
<g id="edge1" class="edge">
<title>AnotacaoComponent&#45;&gt;AnotacaoModule</title>
<path fill="none" stroke="black" d="M401,-122.11C401,-141.34 401,-169 401,-169 401,-169 324.93,-169 324.93,-169"/>
<polygon fill="black" stroke="black" points="324.93,-165.5 314.93,-169 324.93,-172.5 324.93,-165.5"/>
</g>
<!-- SpinnerModule -->
<g id="node3" class="node">
<title>SpinnerModule</title>
<polygon fill="#8dd3c7" stroke="black" points="309.6,-122 306.6,-126 285.6,-126 282.6,-122 206.4,-122 206.4,-86 309.6,-86 309.6,-122"/>
<text text-anchor="middle" x="258" y="-99.8" font-family="Times,serif" font-size="14.00">SpinnerModule</text>
</g>
<!-- SpinnerModule&#45;&gt;AnotacaoModule -->
<g id="edge2" class="edge">
<title>SpinnerModule&#45;&gt;AnotacaoModule</title>
<path fill="none" stroke="black" d="M258,-122.11C258,-122.11 258,-140.99 258,-140.99"/>
<polygon fill="black" stroke="black" points="254.5,-140.99 258,-150.99 261.5,-140.99 254.5,-140.99"/>
</g>
<!-- AnotacaoService -->
<g id="node4" class="node">
<title>AnotacaoService</title>
<ellipse fill="#fdb462" stroke="black" cx="105" cy="-104" rx="76.98" ry="18"/>
<text text-anchor="middle" x="105" y="-99.8" font-family="Times,serif" font-size="14.00">AnotacaoService</text>
</g>
<!-- AnotacaoService&#45;&gt;AnotacaoModule -->
<g id="edge3" class="edge">
<title>AnotacaoService&#45;&gt;AnotacaoModule</title>
<path fill="none" stroke="black" d="M105,-122.11C105,-141.34 105,-169 105,-169 105,-169 191.03,-169 191.03,-169"/>
<polygon fill="black" stroke="black" points="191.03,-172.5 201.03,-169 191.03,-165.5 191.03,-172.5"/>
</g>
</g>
</svg>
