<?xml version="1.0" encoding="UTF-8" standalone="no"?>
<!DOCTYPE svg PUBLIC "-//W3C//DTD SVG 1.1//EN"
 "http://www.w3.org/Graphics/SVG/1.1/DTD/svg11.dtd">
<!-- Generated by graphviz version 2.47.0 (20210316.0004)
 -->
<!-- Title: dependencies Pages: 1 -->
<svg width="608pt" height="211pt"
 viewBox="0.00 0.00 608.00 211.00" xmlns="http://www.w3.org/2000/svg" xmlns:xlink="http://www.w3.org/1999/xlink">
<g id="graph0" class="graph" transform="scale(1 1) rotate(0) translate(4 207)">
<title>dependencies</title>
<polygon fill="white" stroke="transparent" points="-4,4 -4,-207 604,-207 604,4 -4,4"/>
<text text-anchor="start" x="279.01" y="-42.4" font-family="Times-12" font-weight="bold" font-size="14.00">Legend</text>
<polygon fill="#ffffb3" stroke="transparent" points="66,-10 66,-30 86,-30 86,-10 66,-10"/>
<text text-anchor="start" x="89.63" y="-15.4" font-family="Times-12" font-size="14.00"> &#160;Declarations</text>
<polygon fill="#8dd3c7" stroke="transparent" points="179,-10 179,-30 199,-30 199,-10 179,-10"/>
<text text-anchor="start" x="202.73" y="-15.4" font-family="Times-12" font-size="14.00"> &#160;Module</text>
<polygon fill="#80b1d3" stroke="transparent" points="265,-10 265,-30 285,-30 285,-10 265,-10"/>
<text text-anchor="start" x="288.78" y="-15.4" font-family="Times-12" font-size="14.00"> &#160;Bootstrap</text>
<polygon fill="#fdb462" stroke="transparent" points="362,-10 362,-30 382,-30 382,-10 362,-10"/>
<text text-anchor="start" x="385.67" y="-15.4" font-family="Times-12" font-size="14.00"> &#160;Providers</text>
<polygon fill="#fb8072" stroke="transparent" points="458,-10 458,-30 478,-30 478,-10 458,-10"/>
<text text-anchor="start" x="481.73" y="-15.4" font-family="Times-12" font-size="14.00"> &#160;Exports</text>
<g id="clust1" class="cluster">
<title>cluster_RecoverPasswordModule</title>
<polygon fill="none" stroke="black" stroke-dasharray="1,5" points="8,-70 8,-195 592,-195 592,-70 8,-70"/>
</g>
<g id="clust7" class="cluster">
<title>cluster_RecoverPasswordModule_providers</title>
<polygon fill="none" stroke="black" points="350,-78 350,-130 584,-130 584,-78 350,-78"/>
</g>
<g id="clust4" class="cluster">
<title>cluster_RecoverPasswordModule_imports</title>
<polygon fill="none" stroke="black" points="222,-78 222,-130 342,-130 342,-78 222,-78"/>
</g>
<g id="clust2" class="cluster">
<title>cluster_RecoverPasswordModule_declarations</title>
<polygon fill="none" stroke="black" points="16,-78 16,-130 214,-130 214,-78 16,-78"/>
</g>
<!-- RecoverPasswordComponent -->
<g id="node1" class="node">
<title>RecoverPasswordComponent</title>
<polygon fill="#ffffb3" stroke="black" points="205.63,-122 24.37,-122 24.37,-86 205.63,-86 205.63,-122"/>
<text text-anchor="middle" x="115" y="-99.8" font-family="Times,serif" font-size="14.00">RecoverPasswordComponent</text>
</g>
<!-- RecoverPasswordModule -->
<g id="node2" class="node">
<title>RecoverPasswordModule</title>
<polygon fill="#8dd3c7" stroke="black" points="361.84,-187 358.84,-191 337.84,-191 334.84,-187 202.16,-187 202.16,-151 361.84,-151 361.84,-187"/>
<text text-anchor="middle" x="282" y="-164.8" font-family="Times,serif" font-size="14.00">RecoverPasswordModule</text>
</g>
<!-- RecoverPasswordComponent&#45;&gt;RecoverPasswordModule -->
<g id="edge1" class="edge">
<title>RecoverPasswordComponent&#45;&gt;RecoverPasswordModule</title>
<path fill="none" stroke="black" d="M205.9,-104C213.37,-104 218.13,-104 218.13,-104 218.13,-104 218.13,-140.89 218.13,-140.89"/>
<polygon fill="black" stroke="black" points="214.63,-140.89 218.13,-150.89 221.63,-140.89 214.63,-140.89"/>
</g>
<!-- SpinnerModule -->
<g id="node3" class="node">
<title>SpinnerModule</title>
<polygon fill="#8dd3c7" stroke="black" points="333.6,-122 330.6,-126 309.6,-126 306.6,-122 230.4,-122 230.4,-86 333.6,-86 333.6,-122"/>
<text text-anchor="middle" x="282" y="-99.8" font-family="Times,serif" font-size="14.00">SpinnerModule</text>
</g>
<!-- SpinnerModule&#45;&gt;RecoverPasswordModule -->
<g id="edge2" class="edge">
<title>SpinnerModule&#45;&gt;RecoverPasswordModule</title>
<path fill="none" stroke="black" d="M282,-122.11C282,-122.11 282,-140.99 282,-140.99"/>
<polygon fill="black" stroke="black" points="278.5,-140.99 282,-150.99 285.5,-140.99 278.5,-140.99"/>
</g>
<!-- RecoverPasswordService -->
<g id="node4" class="node">
<title>RecoverPasswordService</title>
<ellipse fill="#fdb462" stroke="black" cx="467" cy="-104" rx="109.35" ry="18"/>
<text text-anchor="middle" x="467" y="-99.8" font-family="Times,serif" font-size="14.00">RecoverPasswordService</text>
</g>
<!-- RecoverPasswordService&#45;&gt;RecoverPasswordModule -->
<g id="edge3" class="edge">
<title>RecoverPasswordService&#45;&gt;RecoverPasswordModule</title>
<path fill="none" stroke="black" d="M357.76,-104C350.32,-104 345.69,-104 345.69,-104 345.69,-104 345.69,-140.89 345.69,-140.89"/>
<polygon fill="black" stroke="black" points="342.19,-140.89 345.69,-150.89 349.19,-140.89 342.19,-140.89"/>
</g>
</g>
</svg>
