<?xml version="1.0" encoding="UTF-8" standalone="no"?>
<!DOCTYPE svg PUBLIC "-//W3C//DTD SVG 1.1//EN"
 "http://www.w3.org/Graphics/SVG/1.1/DTD/svg11.dtd">
<!-- Generated by graphviz version 2.47.0 (20210316.0004)
 -->
<!-- Title: dependencies Pages: 1 -->
<svg width="504pt" height="211pt"
 viewBox="0.00 0.00 504.00 211.00" xmlns="http://www.w3.org/2000/svg" xmlns:xlink="http://www.w3.org/1999/xlink">
<g id="graph0" class="graph" transform="scale(1 1) rotate(0) translate(4 207)">
<title>dependencies</title>
<polygon fill="white" stroke="transparent" points="-4,4 -4,-207 500,-207 500,4 -4,4"/>
<text text-anchor="start" x="227.01" y="-42.4" font-family="Times-12" font-weight="bold" font-size="14.00">Legend</text>
<polygon fill="#ffffb3" stroke="transparent" points="14,-10 14,-30 34,-30 34,-10 14,-10"/>
<text text-anchor="start" x="37.63" y="-15.4" font-family="Times-12" font-size="14.00"> &#160;Declarations</text>
<polygon fill="#8dd3c7" stroke="transparent" points="127,-10 127,-30 147,-30 147,-10 127,-10"/>
<text text-anchor="start" x="150.73" y="-15.4" font-family="Times-12" font-size="14.00"> &#160;Module</text>
<polygon fill="#80b1d3" stroke="transparent" points="213,-10 213,-30 233,-30 233,-10 213,-10"/>
<text text-anchor="start" x="236.78" y="-15.4" font-family="Times-12" font-size="14.00"> &#160;Bootstrap</text>
<polygon fill="#fdb462" stroke="transparent" points="310,-10 310,-30 330,-30 330,-10 310,-10"/>
<text text-anchor="start" x="333.67" y="-15.4" font-family="Times-12" font-size="14.00"> &#160;Providers</text>
<polygon fill="#fb8072" stroke="transparent" points="406,-10 406,-30 426,-30 426,-10 406,-10"/>
<text text-anchor="start" x="429.73" y="-15.4" font-family="Times-12" font-size="14.00"> &#160;Exports</text>
<g id="clust1" class="cluster">
<title>cluster_ViewProjetoModule</title>
<polygon fill="none" stroke="black" stroke-dasharray="1,5" points="12,-70 12,-195 484,-195 484,-70 12,-70"/>
</g>
<g id="clust4" class="cluster">
<title>cluster_ViewProjetoModule_imports</title>
<polygon fill="none" stroke="black" points="356,-78 356,-130 476,-130 476,-78 356,-78"/>
</g>
<g id="clust7" class="cluster">
<title>cluster_ViewProjetoModule_providers</title>
<polygon fill="none" stroke="black" points="196,-78 196,-130 348,-130 348,-78 196,-78"/>
</g>
<g id="clust2" class="cluster">
<title>cluster_ViewProjetoModule_declarations</title>
<polygon fill="none" stroke="black" points="20,-78 20,-130 188,-130 188,-78 20,-78"/>
</g>
<!-- ViewProjetoComponent -->
<g id="node1" class="node">
<title>ViewProjetoComponent</title>
<polygon fill="#ffffb3" stroke="black" points="180.09,-122 27.91,-122 27.91,-86 180.09,-86 180.09,-122"/>
<text text-anchor="middle" x="104" y="-99.8" font-family="Times,serif" font-size="14.00">ViewProjetoComponent</text>
</g>
<!-- ViewProjetoModule -->
<g id="node2" class="node">
<title>ViewProjetoModule</title>
<polygon fill="#8dd3c7" stroke="black" points="337.31,-187 334.31,-191 313.31,-191 310.31,-187 206.69,-187 206.69,-151 337.31,-151 337.31,-187"/>
<text text-anchor="middle" x="272" y="-164.8" font-family="Times,serif" font-size="14.00">ViewProjetoModule</text>
</g>
<!-- ViewProjetoComponent&#45;&gt;ViewProjetoModule -->
<g id="edge1" class="edge">
<title>ViewProjetoComponent&#45;&gt;ViewProjetoModule</title>
<path fill="none" stroke="black" d="M104,-122.11C104,-141.34 104,-169 104,-169 104,-169 196.57,-169 196.57,-169"/>
<polygon fill="black" stroke="black" points="196.57,-172.5 206.57,-169 196.57,-165.5 196.57,-172.5"/>
</g>
<!-- SpinnerModule -->
<g id="node3" class="node">
<title>SpinnerModule</title>
<polygon fill="#8dd3c7" stroke="black" points="467.6,-122 464.6,-126 443.6,-126 440.6,-122 364.4,-122 364.4,-86 467.6,-86 467.6,-122"/>
<text text-anchor="middle" x="416" y="-99.8" font-family="Times,serif" font-size="14.00">SpinnerModule</text>
</g>
<!-- SpinnerModule&#45;&gt;ViewProjetoModule -->
<g id="edge2" class="edge">
<title>SpinnerModule&#45;&gt;ViewProjetoModule</title>
<path fill="none" stroke="black" d="M416,-122.11C416,-141.34 416,-169 416,-169 416,-169 347.26,-169 347.26,-169"/>
<polygon fill="black" stroke="black" points="347.26,-165.5 337.26,-169 347.26,-172.5 347.26,-165.5"/>
</g>
<!-- ProjetoService -->
<g id="node4" class="node">
<title>ProjetoService</title>
<ellipse fill="#fdb462" stroke="black" cx="272" cy="-104" rx="67.77" ry="18"/>
<text text-anchor="middle" x="272" y="-99.8" font-family="Times,serif" font-size="14.00">ProjetoService</text>
</g>
<!-- ProjetoService&#45;&gt;ViewProjetoModule -->
<g id="edge3" class="edge">
<title>ProjetoService&#45;&gt;ViewProjetoModule</title>
<path fill="none" stroke="black" d="M272,-122.11C272,-122.11 272,-140.99 272,-140.99"/>
<polygon fill="black" stroke="black" points="268.5,-140.99 272,-150.99 275.5,-140.99 268.5,-140.99"/>
</g>
</g>
</svg>
